%TF.GenerationSoftware,KiCad,Pcbnew,8.0.6*%
%TF.CreationDate,2025-06-09T20:20:48-07:00*%
%TF.ProjectId,ESP32_Clock_Gallery,45535033-325f-4436-9c6f-636b5f47616c,rev?*%
%TF.SameCoordinates,Original*%
%TF.FileFunction,Drillmap*%
%TF.FilePolarity,Positive*%
%FSLAX45Y45*%
G04 Gerber Fmt 4.5, Leading zero omitted, Abs format (unit mm)*
G04 Created by KiCad (PCBNEW 8.0.6) date 2025-06-09 20:20:48*
%MOMM*%
%LPD*%
G01*
G04 APERTURE LIST*
%ADD10C,0.050000*%
%ADD11C,0.200000*%
%ADD12C,0.320000*%
G04 APERTURE END LIST*
D10*
X11350000Y-5250000D02*
X11750000Y-5250000D01*
X11850000Y-5250000D02*
X16875000Y-5250000D01*
X9625000Y-11550000D02*
G75*
G02*
X9425000Y-11350000I0J200000D01*
G01*
X11150000Y-8270000D02*
G75*
G02*
X10950000Y-8470000I-200000J0D01*
G01*
X11150000Y-6330000D02*
X11150000Y-5450000D01*
X11150000Y-5450000D02*
G75*
G02*
X11350000Y-5250000I200000J0D01*
G01*
X9625000Y-8470000D02*
X9950000Y-8470000D01*
X11150000Y-6330000D02*
X11150000Y-8270000D01*
X11850000Y-5250000D02*
X11750000Y-5250000D01*
X9425000Y-8675000D02*
G75*
G02*
X9625000Y-8469938I200000J5000D01*
G01*
X18100000Y-5450000D02*
X18100000Y-11350000D01*
X17275000Y-5250000D02*
X17900000Y-5250000D01*
X17900000Y-11550000D02*
X9950000Y-11550000D01*
X18100000Y-11350000D02*
G75*
G02*
X17900000Y-11550000I-200000J0D01*
G01*
X9950000Y-11550000D02*
X9625000Y-11550000D01*
X17900000Y-5250000D02*
G75*
G02*
X18100000Y-5450000I0J-200000D01*
G01*
X9425000Y-11350000D02*
X9425000Y-8675000D01*
X16875000Y-5250000D02*
X17275000Y-5250000D01*
X10950000Y-8470000D02*
X9950000Y-8470000D01*
D11*
D12*
X9790000Y-10940000D02*
X10110000Y-11260000D01*
X10110000Y-10940000D02*
X9790000Y-11260000D01*
X11390000Y-5490000D02*
X11710000Y-5810000D01*
X11710000Y-5490000D02*
X11390000Y-5810000D01*
X17490000Y-5540000D02*
X17810000Y-5860000D01*
X17810000Y-5540000D02*
X17490000Y-5860000D01*
X17490000Y-10940000D02*
X17810000Y-11260000D01*
X17810000Y-10940000D02*
X17490000Y-11260000D01*
D11*
X9683214Y-11863984D02*
X9683214Y-11663984D01*
X9683214Y-11663984D02*
X9730833Y-11663984D01*
X9730833Y-11663984D02*
X9759405Y-11673508D01*
X9759405Y-11673508D02*
X9778453Y-11692555D01*
X9778453Y-11692555D02*
X9787976Y-11711603D01*
X9787976Y-11711603D02*
X9797500Y-11749698D01*
X9797500Y-11749698D02*
X9797500Y-11778269D01*
X9797500Y-11778269D02*
X9787976Y-11816365D01*
X9787976Y-11816365D02*
X9778453Y-11835412D01*
X9778453Y-11835412D02*
X9759405Y-11854460D01*
X9759405Y-11854460D02*
X9730833Y-11863984D01*
X9730833Y-11863984D02*
X9683214Y-11863984D01*
X9883214Y-11863984D02*
X9883214Y-11730650D01*
X9883214Y-11768746D02*
X9892738Y-11749698D01*
X9892738Y-11749698D02*
X9902262Y-11740174D01*
X9902262Y-11740174D02*
X9921310Y-11730650D01*
X9921310Y-11730650D02*
X9940357Y-11730650D01*
X10007024Y-11863984D02*
X10007024Y-11730650D01*
X10007024Y-11663984D02*
X9997500Y-11673508D01*
X9997500Y-11673508D02*
X10007024Y-11683031D01*
X10007024Y-11683031D02*
X10016548Y-11673508D01*
X10016548Y-11673508D02*
X10007024Y-11663984D01*
X10007024Y-11663984D02*
X10007024Y-11683031D01*
X10130833Y-11863984D02*
X10111786Y-11854460D01*
X10111786Y-11854460D02*
X10102262Y-11835412D01*
X10102262Y-11835412D02*
X10102262Y-11663984D01*
X10235595Y-11863984D02*
X10216548Y-11854460D01*
X10216548Y-11854460D02*
X10207024Y-11835412D01*
X10207024Y-11835412D02*
X10207024Y-11663984D01*
X10464167Y-11863984D02*
X10464167Y-11663984D01*
X10464167Y-11663984D02*
X10530834Y-11806841D01*
X10530834Y-11806841D02*
X10597500Y-11663984D01*
X10597500Y-11663984D02*
X10597500Y-11863984D01*
X10778453Y-11863984D02*
X10778453Y-11759222D01*
X10778453Y-11759222D02*
X10768929Y-11740174D01*
X10768929Y-11740174D02*
X10749881Y-11730650D01*
X10749881Y-11730650D02*
X10711786Y-11730650D01*
X10711786Y-11730650D02*
X10692738Y-11740174D01*
X10778453Y-11854460D02*
X10759405Y-11863984D01*
X10759405Y-11863984D02*
X10711786Y-11863984D01*
X10711786Y-11863984D02*
X10692738Y-11854460D01*
X10692738Y-11854460D02*
X10683214Y-11835412D01*
X10683214Y-11835412D02*
X10683214Y-11816365D01*
X10683214Y-11816365D02*
X10692738Y-11797317D01*
X10692738Y-11797317D02*
X10711786Y-11787793D01*
X10711786Y-11787793D02*
X10759405Y-11787793D01*
X10759405Y-11787793D02*
X10778453Y-11778269D01*
X10873691Y-11730650D02*
X10873691Y-11930650D01*
X10873691Y-11740174D02*
X10892738Y-11730650D01*
X10892738Y-11730650D02*
X10930834Y-11730650D01*
X10930834Y-11730650D02*
X10949881Y-11740174D01*
X10949881Y-11740174D02*
X10959405Y-11749698D01*
X10959405Y-11749698D02*
X10968929Y-11768746D01*
X10968929Y-11768746D02*
X10968929Y-11825888D01*
X10968929Y-11825888D02*
X10959405Y-11844936D01*
X10959405Y-11844936D02*
X10949881Y-11854460D01*
X10949881Y-11854460D02*
X10930834Y-11863984D01*
X10930834Y-11863984D02*
X10892738Y-11863984D01*
X10892738Y-11863984D02*
X10873691Y-11854460D01*
X11054643Y-11844936D02*
X11064167Y-11854460D01*
X11064167Y-11854460D02*
X11054643Y-11863984D01*
X11054643Y-11863984D02*
X11045119Y-11854460D01*
X11045119Y-11854460D02*
X11054643Y-11844936D01*
X11054643Y-11844936D02*
X11054643Y-11863984D01*
X11054643Y-11740174D02*
X11064167Y-11749698D01*
X11064167Y-11749698D02*
X11054643Y-11759222D01*
X11054643Y-11759222D02*
X11045119Y-11749698D01*
X11045119Y-11749698D02*
X11054643Y-11740174D01*
X11054643Y-11740174D02*
X11054643Y-11759222D01*
X9222438Y-12092500D02*
X9422438Y-12292500D01*
X9422438Y-12092500D02*
X9222438Y-12292500D01*
X9664167Y-12083984D02*
X9787976Y-12083984D01*
X9787976Y-12083984D02*
X9721310Y-12160174D01*
X9721310Y-12160174D02*
X9749881Y-12160174D01*
X9749881Y-12160174D02*
X9768929Y-12169698D01*
X9768929Y-12169698D02*
X9778453Y-12179222D01*
X9778453Y-12179222D02*
X9787976Y-12198269D01*
X9787976Y-12198269D02*
X9787976Y-12245888D01*
X9787976Y-12245888D02*
X9778453Y-12264936D01*
X9778453Y-12264936D02*
X9768929Y-12274460D01*
X9768929Y-12274460D02*
X9749881Y-12283984D01*
X9749881Y-12283984D02*
X9692738Y-12283984D01*
X9692738Y-12283984D02*
X9673691Y-12274460D01*
X9673691Y-12274460D02*
X9664167Y-12264936D01*
X9873691Y-12264936D02*
X9883214Y-12274460D01*
X9883214Y-12274460D02*
X9873691Y-12283984D01*
X9873691Y-12283984D02*
X9864167Y-12274460D01*
X9864167Y-12274460D02*
X9873691Y-12264936D01*
X9873691Y-12264936D02*
X9873691Y-12283984D01*
X9959405Y-12103031D02*
X9968929Y-12093508D01*
X9968929Y-12093508D02*
X9987976Y-12083984D01*
X9987976Y-12083984D02*
X10035595Y-12083984D01*
X10035595Y-12083984D02*
X10054643Y-12093508D01*
X10054643Y-12093508D02*
X10064167Y-12103031D01*
X10064167Y-12103031D02*
X10073691Y-12122079D01*
X10073691Y-12122079D02*
X10073691Y-12141127D01*
X10073691Y-12141127D02*
X10064167Y-12169698D01*
X10064167Y-12169698D02*
X9949881Y-12283984D01*
X9949881Y-12283984D02*
X10073691Y-12283984D01*
X10197500Y-12083984D02*
X10216548Y-12083984D01*
X10216548Y-12083984D02*
X10235595Y-12093508D01*
X10235595Y-12093508D02*
X10245119Y-12103031D01*
X10245119Y-12103031D02*
X10254643Y-12122079D01*
X10254643Y-12122079D02*
X10264167Y-12160174D01*
X10264167Y-12160174D02*
X10264167Y-12207793D01*
X10264167Y-12207793D02*
X10254643Y-12245888D01*
X10254643Y-12245888D02*
X10245119Y-12264936D01*
X10245119Y-12264936D02*
X10235595Y-12274460D01*
X10235595Y-12274460D02*
X10216548Y-12283984D01*
X10216548Y-12283984D02*
X10197500Y-12283984D01*
X10197500Y-12283984D02*
X10178453Y-12274460D01*
X10178453Y-12274460D02*
X10168929Y-12264936D01*
X10168929Y-12264936D02*
X10159405Y-12245888D01*
X10159405Y-12245888D02*
X10149881Y-12207793D01*
X10149881Y-12207793D02*
X10149881Y-12160174D01*
X10149881Y-12160174D02*
X10159405Y-12122079D01*
X10159405Y-12122079D02*
X10168929Y-12103031D01*
X10168929Y-12103031D02*
X10178453Y-12093508D01*
X10178453Y-12093508D02*
X10197500Y-12083984D01*
X10387976Y-12083984D02*
X10407024Y-12083984D01*
X10407024Y-12083984D02*
X10426072Y-12093508D01*
X10426072Y-12093508D02*
X10435595Y-12103031D01*
X10435595Y-12103031D02*
X10445119Y-12122079D01*
X10445119Y-12122079D02*
X10454643Y-12160174D01*
X10454643Y-12160174D02*
X10454643Y-12207793D01*
X10454643Y-12207793D02*
X10445119Y-12245888D01*
X10445119Y-12245888D02*
X10435595Y-12264936D01*
X10435595Y-12264936D02*
X10426072Y-12274460D01*
X10426072Y-12274460D02*
X10407024Y-12283984D01*
X10407024Y-12283984D02*
X10387976Y-12283984D01*
X10387976Y-12283984D02*
X10368929Y-12274460D01*
X10368929Y-12274460D02*
X10359405Y-12264936D01*
X10359405Y-12264936D02*
X10349881Y-12245888D01*
X10349881Y-12245888D02*
X10340357Y-12207793D01*
X10340357Y-12207793D02*
X10340357Y-12160174D01*
X10340357Y-12160174D02*
X10349881Y-12122079D01*
X10349881Y-12122079D02*
X10359405Y-12103031D01*
X10359405Y-12103031D02*
X10368929Y-12093508D01*
X10368929Y-12093508D02*
X10387976Y-12083984D01*
X10540357Y-12283984D02*
X10540357Y-12150650D01*
X10540357Y-12169698D02*
X10549881Y-12160174D01*
X10549881Y-12160174D02*
X10568929Y-12150650D01*
X10568929Y-12150650D02*
X10597500Y-12150650D01*
X10597500Y-12150650D02*
X10616548Y-12160174D01*
X10616548Y-12160174D02*
X10626072Y-12179222D01*
X10626072Y-12179222D02*
X10626072Y-12283984D01*
X10626072Y-12179222D02*
X10635595Y-12160174D01*
X10635595Y-12160174D02*
X10654643Y-12150650D01*
X10654643Y-12150650D02*
X10683214Y-12150650D01*
X10683214Y-12150650D02*
X10702262Y-12160174D01*
X10702262Y-12160174D02*
X10711786Y-12179222D01*
X10711786Y-12179222D02*
X10711786Y-12283984D01*
X10807024Y-12283984D02*
X10807024Y-12150650D01*
X10807024Y-12169698D02*
X10816548Y-12160174D01*
X10816548Y-12160174D02*
X10835595Y-12150650D01*
X10835595Y-12150650D02*
X10864167Y-12150650D01*
X10864167Y-12150650D02*
X10883215Y-12160174D01*
X10883215Y-12160174D02*
X10892738Y-12179222D01*
X10892738Y-12179222D02*
X10892738Y-12283984D01*
X10892738Y-12179222D02*
X10902262Y-12160174D01*
X10902262Y-12160174D02*
X10921310Y-12150650D01*
X10921310Y-12150650D02*
X10949881Y-12150650D01*
X10949881Y-12150650D02*
X10968929Y-12160174D01*
X10968929Y-12160174D02*
X10978453Y-12179222D01*
X10978453Y-12179222D02*
X10978453Y-12283984D01*
X11368929Y-12074460D02*
X11197500Y-12331603D01*
X11626072Y-12083984D02*
X11645119Y-12083984D01*
X11645119Y-12083984D02*
X11664167Y-12093508D01*
X11664167Y-12093508D02*
X11673691Y-12103031D01*
X11673691Y-12103031D02*
X11683215Y-12122079D01*
X11683215Y-12122079D02*
X11692738Y-12160174D01*
X11692738Y-12160174D02*
X11692738Y-12207793D01*
X11692738Y-12207793D02*
X11683215Y-12245888D01*
X11683215Y-12245888D02*
X11673691Y-12264936D01*
X11673691Y-12264936D02*
X11664167Y-12274460D01*
X11664167Y-12274460D02*
X11645119Y-12283984D01*
X11645119Y-12283984D02*
X11626072Y-12283984D01*
X11626072Y-12283984D02*
X11607024Y-12274460D01*
X11607024Y-12274460D02*
X11597500Y-12264936D01*
X11597500Y-12264936D02*
X11587976Y-12245888D01*
X11587976Y-12245888D02*
X11578453Y-12207793D01*
X11578453Y-12207793D02*
X11578453Y-12160174D01*
X11578453Y-12160174D02*
X11587976Y-12122079D01*
X11587976Y-12122079D02*
X11597500Y-12103031D01*
X11597500Y-12103031D02*
X11607024Y-12093508D01*
X11607024Y-12093508D02*
X11626072Y-12083984D01*
X11778453Y-12264936D02*
X11787976Y-12274460D01*
X11787976Y-12274460D02*
X11778453Y-12283984D01*
X11778453Y-12283984D02*
X11768929Y-12274460D01*
X11768929Y-12274460D02*
X11778453Y-12264936D01*
X11778453Y-12264936D02*
X11778453Y-12283984D01*
X11978453Y-12283984D02*
X11864167Y-12283984D01*
X11921310Y-12283984D02*
X11921310Y-12083984D01*
X11921310Y-12083984D02*
X11902262Y-12112555D01*
X11902262Y-12112555D02*
X11883215Y-12131603D01*
X11883215Y-12131603D02*
X11864167Y-12141127D01*
X12054643Y-12103031D02*
X12064167Y-12093508D01*
X12064167Y-12093508D02*
X12083215Y-12083984D01*
X12083215Y-12083984D02*
X12130834Y-12083984D01*
X12130834Y-12083984D02*
X12149881Y-12093508D01*
X12149881Y-12093508D02*
X12159405Y-12103031D01*
X12159405Y-12103031D02*
X12168929Y-12122079D01*
X12168929Y-12122079D02*
X12168929Y-12141127D01*
X12168929Y-12141127D02*
X12159405Y-12169698D01*
X12159405Y-12169698D02*
X12045119Y-12283984D01*
X12045119Y-12283984D02*
X12168929Y-12283984D01*
X12340357Y-12083984D02*
X12302262Y-12083984D01*
X12302262Y-12083984D02*
X12283215Y-12093508D01*
X12283215Y-12093508D02*
X12273691Y-12103031D01*
X12273691Y-12103031D02*
X12254643Y-12131603D01*
X12254643Y-12131603D02*
X12245119Y-12169698D01*
X12245119Y-12169698D02*
X12245119Y-12245888D01*
X12245119Y-12245888D02*
X12254643Y-12264936D01*
X12254643Y-12264936D02*
X12264167Y-12274460D01*
X12264167Y-12274460D02*
X12283215Y-12283984D01*
X12283215Y-12283984D02*
X12321310Y-12283984D01*
X12321310Y-12283984D02*
X12340357Y-12274460D01*
X12340357Y-12274460D02*
X12349881Y-12264936D01*
X12349881Y-12264936D02*
X12359405Y-12245888D01*
X12359405Y-12245888D02*
X12359405Y-12198269D01*
X12359405Y-12198269D02*
X12349881Y-12179222D01*
X12349881Y-12179222D02*
X12340357Y-12169698D01*
X12340357Y-12169698D02*
X12321310Y-12160174D01*
X12321310Y-12160174D02*
X12283215Y-12160174D01*
X12283215Y-12160174D02*
X12264167Y-12169698D01*
X12264167Y-12169698D02*
X12254643Y-12179222D01*
X12254643Y-12179222D02*
X12245119Y-12198269D01*
X12483215Y-12083984D02*
X12502262Y-12083984D01*
X12502262Y-12083984D02*
X12521310Y-12093508D01*
X12521310Y-12093508D02*
X12530834Y-12103031D01*
X12530834Y-12103031D02*
X12540357Y-12122079D01*
X12540357Y-12122079D02*
X12549881Y-12160174D01*
X12549881Y-12160174D02*
X12549881Y-12207793D01*
X12549881Y-12207793D02*
X12540357Y-12245888D01*
X12540357Y-12245888D02*
X12530834Y-12264936D01*
X12530834Y-12264936D02*
X12521310Y-12274460D01*
X12521310Y-12274460D02*
X12502262Y-12283984D01*
X12502262Y-12283984D02*
X12483215Y-12283984D01*
X12483215Y-12283984D02*
X12464167Y-12274460D01*
X12464167Y-12274460D02*
X12454643Y-12264936D01*
X12454643Y-12264936D02*
X12445119Y-12245888D01*
X12445119Y-12245888D02*
X12435596Y-12207793D01*
X12435596Y-12207793D02*
X12435596Y-12160174D01*
X12435596Y-12160174D02*
X12445119Y-12122079D01*
X12445119Y-12122079D02*
X12454643Y-12103031D01*
X12454643Y-12103031D02*
X12464167Y-12093508D01*
X12464167Y-12093508D02*
X12483215Y-12083984D01*
X12626072Y-12083984D02*
X12626072Y-12122079D01*
X12702262Y-12083984D02*
X12702262Y-12122079D01*
X12997500Y-12360174D02*
X12987977Y-12350650D01*
X12987977Y-12350650D02*
X12968929Y-12322079D01*
X12968929Y-12322079D02*
X12959405Y-12303031D01*
X12959405Y-12303031D02*
X12949881Y-12274460D01*
X12949881Y-12274460D02*
X12940358Y-12226841D01*
X12940358Y-12226841D02*
X12940358Y-12188746D01*
X12940358Y-12188746D02*
X12949881Y-12141127D01*
X12949881Y-12141127D02*
X12959405Y-12112555D01*
X12959405Y-12112555D02*
X12968929Y-12093508D01*
X12968929Y-12093508D02*
X12987977Y-12064936D01*
X12987977Y-12064936D02*
X12997500Y-12055412D01*
X13159405Y-12150650D02*
X13159405Y-12283984D01*
X13111786Y-12074460D02*
X13064167Y-12217317D01*
X13064167Y-12217317D02*
X13187977Y-12217317D01*
X13416548Y-12283984D02*
X13416548Y-12083984D01*
X13502262Y-12283984D02*
X13502262Y-12179222D01*
X13502262Y-12179222D02*
X13492739Y-12160174D01*
X13492739Y-12160174D02*
X13473691Y-12150650D01*
X13473691Y-12150650D02*
X13445119Y-12150650D01*
X13445119Y-12150650D02*
X13426072Y-12160174D01*
X13426072Y-12160174D02*
X13416548Y-12169698D01*
X13626072Y-12283984D02*
X13607024Y-12274460D01*
X13607024Y-12274460D02*
X13597500Y-12264936D01*
X13597500Y-12264936D02*
X13587977Y-12245888D01*
X13587977Y-12245888D02*
X13587977Y-12188746D01*
X13587977Y-12188746D02*
X13597500Y-12169698D01*
X13597500Y-12169698D02*
X13607024Y-12160174D01*
X13607024Y-12160174D02*
X13626072Y-12150650D01*
X13626072Y-12150650D02*
X13654643Y-12150650D01*
X13654643Y-12150650D02*
X13673691Y-12160174D01*
X13673691Y-12160174D02*
X13683215Y-12169698D01*
X13683215Y-12169698D02*
X13692739Y-12188746D01*
X13692739Y-12188746D02*
X13692739Y-12245888D01*
X13692739Y-12245888D02*
X13683215Y-12264936D01*
X13683215Y-12264936D02*
X13673691Y-12274460D01*
X13673691Y-12274460D02*
X13654643Y-12283984D01*
X13654643Y-12283984D02*
X13626072Y-12283984D01*
X13807024Y-12283984D02*
X13787977Y-12274460D01*
X13787977Y-12274460D02*
X13778453Y-12255412D01*
X13778453Y-12255412D02*
X13778453Y-12083984D01*
X13959405Y-12274460D02*
X13940358Y-12283984D01*
X13940358Y-12283984D02*
X13902262Y-12283984D01*
X13902262Y-12283984D02*
X13883215Y-12274460D01*
X13883215Y-12274460D02*
X13873691Y-12255412D01*
X13873691Y-12255412D02*
X13873691Y-12179222D01*
X13873691Y-12179222D02*
X13883215Y-12160174D01*
X13883215Y-12160174D02*
X13902262Y-12150650D01*
X13902262Y-12150650D02*
X13940358Y-12150650D01*
X13940358Y-12150650D02*
X13959405Y-12160174D01*
X13959405Y-12160174D02*
X13968929Y-12179222D01*
X13968929Y-12179222D02*
X13968929Y-12198269D01*
X13968929Y-12198269D02*
X13873691Y-12217317D01*
X14045120Y-12274460D02*
X14064167Y-12283984D01*
X14064167Y-12283984D02*
X14102262Y-12283984D01*
X14102262Y-12283984D02*
X14121310Y-12274460D01*
X14121310Y-12274460D02*
X14130834Y-12255412D01*
X14130834Y-12255412D02*
X14130834Y-12245888D01*
X14130834Y-12245888D02*
X14121310Y-12226841D01*
X14121310Y-12226841D02*
X14102262Y-12217317D01*
X14102262Y-12217317D02*
X14073691Y-12217317D01*
X14073691Y-12217317D02*
X14054643Y-12207793D01*
X14054643Y-12207793D02*
X14045120Y-12188746D01*
X14045120Y-12188746D02*
X14045120Y-12179222D01*
X14045120Y-12179222D02*
X14054643Y-12160174D01*
X14054643Y-12160174D02*
X14073691Y-12150650D01*
X14073691Y-12150650D02*
X14102262Y-12150650D01*
X14102262Y-12150650D02*
X14121310Y-12160174D01*
X14197501Y-12360174D02*
X14207024Y-12350650D01*
X14207024Y-12350650D02*
X14226072Y-12322079D01*
X14226072Y-12322079D02*
X14235596Y-12303031D01*
X14235596Y-12303031D02*
X14245120Y-12274460D01*
X14245120Y-12274460D02*
X14254643Y-12226841D01*
X14254643Y-12226841D02*
X14254643Y-12188746D01*
X14254643Y-12188746D02*
X14245120Y-12141127D01*
X14245120Y-12141127D02*
X14235596Y-12112555D01*
X14235596Y-12112555D02*
X14226072Y-12093508D01*
X14226072Y-12093508D02*
X14207024Y-12064936D01*
X14207024Y-12064936D02*
X14197501Y-12055412D01*
X14559405Y-12360174D02*
X14549881Y-12350650D01*
X14549881Y-12350650D02*
X14530834Y-12322079D01*
X14530834Y-12322079D02*
X14521310Y-12303031D01*
X14521310Y-12303031D02*
X14511786Y-12274460D01*
X14511786Y-12274460D02*
X14502262Y-12226841D01*
X14502262Y-12226841D02*
X14502262Y-12188746D01*
X14502262Y-12188746D02*
X14511786Y-12141127D01*
X14511786Y-12141127D02*
X14521310Y-12112555D01*
X14521310Y-12112555D02*
X14530834Y-12093508D01*
X14530834Y-12093508D02*
X14549881Y-12064936D01*
X14549881Y-12064936D02*
X14559405Y-12055412D01*
X14635596Y-12150650D02*
X14635596Y-12283984D01*
X14635596Y-12169698D02*
X14645120Y-12160174D01*
X14645120Y-12160174D02*
X14664167Y-12150650D01*
X14664167Y-12150650D02*
X14692739Y-12150650D01*
X14692739Y-12150650D02*
X14711786Y-12160174D01*
X14711786Y-12160174D02*
X14721310Y-12179222D01*
X14721310Y-12179222D02*
X14721310Y-12283984D01*
X14845120Y-12283984D02*
X14826072Y-12274460D01*
X14826072Y-12274460D02*
X14816548Y-12264936D01*
X14816548Y-12264936D02*
X14807024Y-12245888D01*
X14807024Y-12245888D02*
X14807024Y-12188746D01*
X14807024Y-12188746D02*
X14816548Y-12169698D01*
X14816548Y-12169698D02*
X14826072Y-12160174D01*
X14826072Y-12160174D02*
X14845120Y-12150650D01*
X14845120Y-12150650D02*
X14873691Y-12150650D01*
X14873691Y-12150650D02*
X14892739Y-12160174D01*
X14892739Y-12160174D02*
X14902262Y-12169698D01*
X14902262Y-12169698D02*
X14911786Y-12188746D01*
X14911786Y-12188746D02*
X14911786Y-12245888D01*
X14911786Y-12245888D02*
X14902262Y-12264936D01*
X14902262Y-12264936D02*
X14892739Y-12274460D01*
X14892739Y-12274460D02*
X14873691Y-12283984D01*
X14873691Y-12283984D02*
X14845120Y-12283984D01*
X14968929Y-12150650D02*
X15045120Y-12150650D01*
X14997501Y-12083984D02*
X14997501Y-12255412D01*
X14997501Y-12255412D02*
X15007024Y-12274460D01*
X15007024Y-12274460D02*
X15026072Y-12283984D01*
X15026072Y-12283984D02*
X15045120Y-12283984D01*
X15264167Y-12150650D02*
X15264167Y-12350650D01*
X15264167Y-12160174D02*
X15283215Y-12150650D01*
X15283215Y-12150650D02*
X15321310Y-12150650D01*
X15321310Y-12150650D02*
X15340358Y-12160174D01*
X15340358Y-12160174D02*
X15349882Y-12169698D01*
X15349882Y-12169698D02*
X15359405Y-12188746D01*
X15359405Y-12188746D02*
X15359405Y-12245888D01*
X15359405Y-12245888D02*
X15349882Y-12264936D01*
X15349882Y-12264936D02*
X15340358Y-12274460D01*
X15340358Y-12274460D02*
X15321310Y-12283984D01*
X15321310Y-12283984D02*
X15283215Y-12283984D01*
X15283215Y-12283984D02*
X15264167Y-12274460D01*
X15473691Y-12283984D02*
X15454643Y-12274460D01*
X15454643Y-12274460D02*
X15445120Y-12255412D01*
X15445120Y-12255412D02*
X15445120Y-12083984D01*
X15635596Y-12283984D02*
X15635596Y-12179222D01*
X15635596Y-12179222D02*
X15626072Y-12160174D01*
X15626072Y-12160174D02*
X15607024Y-12150650D01*
X15607024Y-12150650D02*
X15568929Y-12150650D01*
X15568929Y-12150650D02*
X15549882Y-12160174D01*
X15635596Y-12274460D02*
X15616548Y-12283984D01*
X15616548Y-12283984D02*
X15568929Y-12283984D01*
X15568929Y-12283984D02*
X15549882Y-12274460D01*
X15549882Y-12274460D02*
X15540358Y-12255412D01*
X15540358Y-12255412D02*
X15540358Y-12236365D01*
X15540358Y-12236365D02*
X15549882Y-12217317D01*
X15549882Y-12217317D02*
X15568929Y-12207793D01*
X15568929Y-12207793D02*
X15616548Y-12207793D01*
X15616548Y-12207793D02*
X15635596Y-12198269D01*
X15702263Y-12150650D02*
X15778453Y-12150650D01*
X15730834Y-12083984D02*
X15730834Y-12255412D01*
X15730834Y-12255412D02*
X15740358Y-12274460D01*
X15740358Y-12274460D02*
X15759405Y-12283984D01*
X15759405Y-12283984D02*
X15778453Y-12283984D01*
X15921310Y-12274460D02*
X15902263Y-12283984D01*
X15902263Y-12283984D02*
X15864167Y-12283984D01*
X15864167Y-12283984D02*
X15845120Y-12274460D01*
X15845120Y-12274460D02*
X15835596Y-12255412D01*
X15835596Y-12255412D02*
X15835596Y-12179222D01*
X15835596Y-12179222D02*
X15845120Y-12160174D01*
X15845120Y-12160174D02*
X15864167Y-12150650D01*
X15864167Y-12150650D02*
X15902263Y-12150650D01*
X15902263Y-12150650D02*
X15921310Y-12160174D01*
X15921310Y-12160174D02*
X15930834Y-12179222D01*
X15930834Y-12179222D02*
X15930834Y-12198269D01*
X15930834Y-12198269D02*
X15835596Y-12217317D01*
X16102263Y-12283984D02*
X16102263Y-12083984D01*
X16102263Y-12274460D02*
X16083215Y-12283984D01*
X16083215Y-12283984D02*
X16045120Y-12283984D01*
X16045120Y-12283984D02*
X16026072Y-12274460D01*
X16026072Y-12274460D02*
X16016548Y-12264936D01*
X16016548Y-12264936D02*
X16007024Y-12245888D01*
X16007024Y-12245888D02*
X16007024Y-12188746D01*
X16007024Y-12188746D02*
X16016548Y-12169698D01*
X16016548Y-12169698D02*
X16026072Y-12160174D01*
X16026072Y-12160174D02*
X16045120Y-12150650D01*
X16045120Y-12150650D02*
X16083215Y-12150650D01*
X16083215Y-12150650D02*
X16102263Y-12160174D01*
X16178453Y-12360174D02*
X16187977Y-12350650D01*
X16187977Y-12350650D02*
X16207024Y-12322079D01*
X16207024Y-12322079D02*
X16216548Y-12303031D01*
X16216548Y-12303031D02*
X16226072Y-12274460D01*
X16226072Y-12274460D02*
X16235596Y-12226841D01*
X16235596Y-12226841D02*
X16235596Y-12188746D01*
X16235596Y-12188746D02*
X16226072Y-12141127D01*
X16226072Y-12141127D02*
X16216548Y-12112555D01*
X16216548Y-12112555D02*
X16207024Y-12093508D01*
X16207024Y-12093508D02*
X16187977Y-12064936D01*
X16187977Y-12064936D02*
X16178453Y-12055412D01*
M02*
