%TF.GenerationSoftware,KiCad,Pcbnew,8.0.6*%
%TF.CreationDate,2025-06-09T20:20:09-07:00*%
%TF.ProjectId,ESP32_Clock_Gallery,45535033-325f-4436-9c6f-636b5f47616c,rev?*%
%TF.SameCoordinates,Original*%
%TF.FileFunction,Legend,Bot*%
%TF.FilePolarity,Positive*%
%FSLAX46Y46*%
G04 Gerber Fmt 4.6, Leading zero omitted, Abs format (unit mm)*
G04 Created by KiCad (PCBNEW 8.0.6) date 2025-06-09 20:20:09*
%MOMM*%
%LPD*%
G01*
G04 APERTURE LIST*
G04 Aperture macros list*
%AMRoundRect*
0 Rectangle with rounded corners*
0 $1 Rounding radius*
0 $2 $3 $4 $5 $6 $7 $8 $9 X,Y pos of 4 corners*
0 Add a 4 corners polygon primitive as box body*
4,1,4,$2,$3,$4,$5,$6,$7,$8,$9,$2,$3,0*
0 Add four circle primitives for the rounded corners*
1,1,$1+$1,$2,$3*
1,1,$1+$1,$4,$5*
1,1,$1+$1,$6,$7*
1,1,$1+$1,$8,$9*
0 Add four rect primitives between the rounded corners*
20,1,$1+$1,$2,$3,$4,$5,0*
20,1,$1+$1,$4,$5,$6,$7,0*
20,1,$1+$1,$6,$7,$8,$9,0*
20,1,$1+$1,$8,$9,$2,$3,0*%
G04 Aperture macros list end*
%ADD10C,0.300000*%
%ADD11C,0.150000*%
%ADD12C,0.127000*%
%ADD13C,3.200000*%
%ADD14R,1.700000X1.700000*%
%ADD15O,1.700000X1.700000*%
%ADD16RoundRect,0.102000X-0.900000X-0.900000X0.900000X-0.900000X0.900000X0.900000X-0.900000X0.900000X0*%
%ADD17C,2.004000*%
%ADD18RoundRect,0.102000X0.654000X-0.654000X0.654000X0.654000X-0.654000X0.654000X-0.654000X-0.654000X0*%
%ADD19C,1.512000*%
%ADD20RoundRect,0.102000X-1.000000X-1.000000X1.000000X-1.000000X1.000000X1.000000X-1.000000X1.000000X0*%
%ADD21C,2.204000*%
%ADD22RoundRect,0.102000X0.350000X0.995000X-0.350000X0.995000X-0.350000X-0.995000X0.350000X-0.995000X0*%
%ADD23RoundRect,0.102000X0.400000X0.995000X-0.400000X0.995000X-0.400000X-0.995000X0.400000X-0.995000X0*%
%ADD24RoundRect,0.102000X0.450000X0.995000X-0.450000X0.995000X-0.450000X-0.995000X0.450000X-0.995000X0*%
%ADD25O,1.204000X1.904000*%
G04 APERTURE END LIST*
D10*
X167326441Y-58239638D02*
X167326441Y-56239638D01*
X167326441Y-56239638D02*
X166659774Y-57668209D01*
X166659774Y-57668209D02*
X165993108Y-56239638D01*
X165993108Y-56239638D02*
X165993108Y-58239638D01*
X164183584Y-58239638D02*
X164183584Y-57192019D01*
X164183584Y-57192019D02*
X164278822Y-57001542D01*
X164278822Y-57001542D02*
X164469298Y-56906304D01*
X164469298Y-56906304D02*
X164850251Y-56906304D01*
X164850251Y-56906304D02*
X165040727Y-57001542D01*
X164183584Y-58144400D02*
X164374060Y-58239638D01*
X164374060Y-58239638D02*
X164850251Y-58239638D01*
X164850251Y-58239638D02*
X165040727Y-58144400D01*
X165040727Y-58144400D02*
X165135965Y-57953923D01*
X165135965Y-57953923D02*
X165135965Y-57763447D01*
X165135965Y-57763447D02*
X165040727Y-57572971D01*
X165040727Y-57572971D02*
X164850251Y-57477733D01*
X164850251Y-57477733D02*
X164374060Y-57477733D01*
X164374060Y-57477733D02*
X164183584Y-57382495D01*
X162374060Y-58239638D02*
X162374060Y-56239638D01*
X162374060Y-58144400D02*
X162564536Y-58239638D01*
X162564536Y-58239638D02*
X162945489Y-58239638D01*
X162945489Y-58239638D02*
X163135965Y-58144400D01*
X163135965Y-58144400D02*
X163231203Y-58049161D01*
X163231203Y-58049161D02*
X163326441Y-57858685D01*
X163326441Y-57858685D02*
X163326441Y-57287257D01*
X163326441Y-57287257D02*
X163231203Y-57096780D01*
X163231203Y-57096780D02*
X163135965Y-57001542D01*
X163135965Y-57001542D02*
X162945489Y-56906304D01*
X162945489Y-56906304D02*
X162564536Y-56906304D01*
X162564536Y-56906304D02*
X162374060Y-57001542D01*
X160659774Y-58144400D02*
X160850250Y-58239638D01*
X160850250Y-58239638D02*
X161231203Y-58239638D01*
X161231203Y-58239638D02*
X161421679Y-58144400D01*
X161421679Y-58144400D02*
X161516917Y-57953923D01*
X161516917Y-57953923D02*
X161516917Y-57192019D01*
X161516917Y-57192019D02*
X161421679Y-57001542D01*
X161421679Y-57001542D02*
X161231203Y-56906304D01*
X161231203Y-56906304D02*
X160850250Y-56906304D01*
X160850250Y-56906304D02*
X160659774Y-57001542D01*
X160659774Y-57001542D02*
X160564536Y-57192019D01*
X160564536Y-57192019D02*
X160564536Y-57382495D01*
X160564536Y-57382495D02*
X161516917Y-57572971D01*
X158183583Y-58239638D02*
X158183583Y-56239638D01*
X158183583Y-57001542D02*
X157993107Y-56906304D01*
X157993107Y-56906304D02*
X157612154Y-56906304D01*
X157612154Y-56906304D02*
X157421678Y-57001542D01*
X157421678Y-57001542D02*
X157326440Y-57096780D01*
X157326440Y-57096780D02*
X157231202Y-57287257D01*
X157231202Y-57287257D02*
X157231202Y-57858685D01*
X157231202Y-57858685D02*
X157326440Y-58049161D01*
X157326440Y-58049161D02*
X157421678Y-58144400D01*
X157421678Y-58144400D02*
X157612154Y-58239638D01*
X157612154Y-58239638D02*
X157993107Y-58239638D01*
X157993107Y-58239638D02*
X158183583Y-58144400D01*
X156564535Y-56906304D02*
X156088345Y-58239638D01*
X155612154Y-56906304D02*
X156088345Y-58239638D01*
X156088345Y-58239638D02*
X156278821Y-58715828D01*
X156278821Y-58715828D02*
X156374059Y-58811066D01*
X156374059Y-58811066D02*
X156564535Y-58906304D01*
X153326439Y-58239638D02*
X153326439Y-56239638D01*
X153326439Y-56239638D02*
X152183582Y-58239638D01*
X152183582Y-58239638D02*
X152183582Y-56239638D01*
X151231201Y-58239638D02*
X151231201Y-56906304D01*
X151231201Y-56239638D02*
X151326439Y-56334876D01*
X151326439Y-56334876D02*
X151231201Y-56430114D01*
X151231201Y-56430114D02*
X151135963Y-56334876D01*
X151135963Y-56334876D02*
X151231201Y-56239638D01*
X151231201Y-56239638D02*
X151231201Y-56430114D01*
X149421677Y-58144400D02*
X149612153Y-58239638D01*
X149612153Y-58239638D02*
X149993106Y-58239638D01*
X149993106Y-58239638D02*
X150183582Y-58144400D01*
X150183582Y-58144400D02*
X150278820Y-58049161D01*
X150278820Y-58049161D02*
X150374058Y-57858685D01*
X150374058Y-57858685D02*
X150374058Y-57287257D01*
X150374058Y-57287257D02*
X150278820Y-57096780D01*
X150278820Y-57096780D02*
X150183582Y-57001542D01*
X150183582Y-57001542D02*
X149993106Y-56906304D01*
X149993106Y-56906304D02*
X149612153Y-56906304D01*
X149612153Y-56906304D02*
X149421677Y-57001542D01*
X148564534Y-58239638D02*
X148564534Y-56239638D01*
X148374058Y-57477733D02*
X147802629Y-58239638D01*
X147802629Y-56906304D02*
X148564534Y-57668209D01*
D11*
X109833333Y-111454819D02*
X109833333Y-112169104D01*
X109833333Y-112169104D02*
X109880952Y-112311961D01*
X109880952Y-112311961D02*
X109976190Y-112407200D01*
X109976190Y-112407200D02*
X110119047Y-112454819D01*
X110119047Y-112454819D02*
X110214285Y-112454819D01*
X108833333Y-112454819D02*
X109404761Y-112454819D01*
X109119047Y-112454819D02*
X109119047Y-111454819D01*
X109119047Y-111454819D02*
X109214285Y-111597676D01*
X109214285Y-111597676D02*
X109309523Y-111692914D01*
X109309523Y-111692914D02*
X109404761Y-111740533D01*
D12*
X112110000Y-110645000D02*
X112110000Y-111125000D01*
X112110000Y-113605000D02*
X112110000Y-113465000D01*
X112960000Y-110645000D02*
X112110000Y-110645000D01*
X120000000Y-110645000D02*
X120850000Y-110645000D01*
X120850000Y-110645000D02*
X120850000Y-111125000D01*
X120850000Y-113465000D02*
X120850000Y-113605000D01*
X120850000Y-113605000D02*
X112110000Y-113605000D01*
%LPC*%
D13*
X176500000Y-57000000D03*
D14*
X140570000Y-86690000D03*
D15*
X140570000Y-84150000D03*
X140570000Y-81610000D03*
X140570000Y-79070000D03*
X140570000Y-76530000D03*
X140570000Y-73990000D03*
D13*
X115500000Y-56500000D03*
D16*
X156003334Y-110025000D03*
D17*
X159503334Y-110025000D03*
D18*
X115200000Y-62500000D03*
D19*
X115200000Y-64500000D03*
X115200000Y-66500000D03*
X115200000Y-68500000D03*
X115200000Y-70500000D03*
X115200000Y-72500000D03*
X115200000Y-74500000D03*
X115200000Y-76500000D03*
D20*
X144600000Y-62920000D03*
D21*
X144600000Y-65460000D03*
X144600000Y-68000000D03*
X144600000Y-70540000D03*
X144600000Y-73080000D03*
X144600000Y-75620000D03*
X144600000Y-78160000D03*
X144600000Y-80700000D03*
X144600000Y-83240000D03*
X144600000Y-85780000D03*
X144600000Y-88320000D03*
X144600000Y-90860000D03*
X144600000Y-93400000D03*
X144600000Y-95940000D03*
X144600000Y-98480000D03*
X170000000Y-98480000D03*
X170000000Y-95940000D03*
X170000000Y-93400000D03*
X170000000Y-90860000D03*
X170000000Y-88320000D03*
X170000000Y-85780000D03*
X170000000Y-83240000D03*
X170000000Y-80700000D03*
X170000000Y-78160000D03*
X170000000Y-75620000D03*
X170000000Y-73080000D03*
X170000000Y-70540000D03*
X170000000Y-68000000D03*
X170000000Y-65460000D03*
X170000000Y-62920000D03*
D13*
X99500000Y-111000000D03*
D16*
X146354168Y-110025000D03*
D17*
X149854168Y-110025000D03*
D16*
X136705000Y-110025000D03*
D17*
X140205000Y-110025000D03*
D14*
X97250000Y-88920000D03*
D15*
X97250000Y-91460000D03*
X97250000Y-94000000D03*
X97250000Y-96540000D03*
X97250000Y-99080000D03*
X97250000Y-101620000D03*
D16*
X165652500Y-110025000D03*
D17*
X169152500Y-110025000D03*
D13*
X176500000Y-111000000D03*
D22*
X116980000Y-111500000D03*
D23*
X114960000Y-111500000D03*
D24*
X113730000Y-111500000D03*
D22*
X115980000Y-111500000D03*
D23*
X118000000Y-111500000D03*
D24*
X119230000Y-111500000D03*
D25*
X120750000Y-112295000D03*
X112210000Y-112295000D03*
%LPD*%
M02*
