%TF.GenerationSoftware,KiCad,Pcbnew,8.0.6*%
%TF.CreationDate,2025-06-09T20:20:09-07:00*%
%TF.ProjectId,ESP32_Clock_Gallery,45535033-325f-4436-9c6f-636b5f47616c,rev?*%
%TF.SameCoordinates,Original*%
%TF.FileFunction,Soldermask,Bot*%
%TF.FilePolarity,Negative*%
%FSLAX46Y46*%
G04 Gerber Fmt 4.6, Leading zero omitted, Abs format (unit mm)*
G04 Created by KiCad (PCBNEW 8.0.6) date 2025-06-09 20:20:09*
%MOMM*%
%LPD*%
G01*
G04 APERTURE LIST*
G04 Aperture macros list*
%AMRoundRect*
0 Rectangle with rounded corners*
0 $1 Rounding radius*
0 $2 $3 $4 $5 $6 $7 $8 $9 X,Y pos of 4 corners*
0 Add a 4 corners polygon primitive as box body*
4,1,4,$2,$3,$4,$5,$6,$7,$8,$9,$2,$3,0*
0 Add four circle primitives for the rounded corners*
1,1,$1+$1,$2,$3*
1,1,$1+$1,$4,$5*
1,1,$1+$1,$6,$7*
1,1,$1+$1,$8,$9*
0 Add four rect primitives between the rounded corners*
20,1,$1+$1,$2,$3,$4,$5,0*
20,1,$1+$1,$4,$5,$6,$7,0*
20,1,$1+$1,$6,$7,$8,$9,0*
20,1,$1+$1,$8,$9,$2,$3,0*%
G04 Aperture macros list end*
%ADD10C,3.200000*%
%ADD11R,1.700000X1.700000*%
%ADD12O,1.700000X1.700000*%
%ADD13RoundRect,0.102000X-0.900000X-0.900000X0.900000X-0.900000X0.900000X0.900000X-0.900000X0.900000X0*%
%ADD14C,2.004000*%
%ADD15RoundRect,0.102000X0.654000X-0.654000X0.654000X0.654000X-0.654000X0.654000X-0.654000X-0.654000X0*%
%ADD16C,1.512000*%
%ADD17RoundRect,0.102000X-1.000000X-1.000000X1.000000X-1.000000X1.000000X1.000000X-1.000000X1.000000X0*%
%ADD18C,2.204000*%
%ADD19RoundRect,0.102000X0.350000X0.995000X-0.350000X0.995000X-0.350000X-0.995000X0.350000X-0.995000X0*%
%ADD20RoundRect,0.102000X0.400000X0.995000X-0.400000X0.995000X-0.400000X-0.995000X0.400000X-0.995000X0*%
%ADD21RoundRect,0.102000X0.450000X0.995000X-0.450000X0.995000X-0.450000X-0.995000X0.450000X-0.995000X0*%
%ADD22O,1.204000X1.904000*%
G04 APERTURE END LIST*
D10*
X176500000Y-57000000D03*
D11*
X140570000Y-86690000D03*
D12*
X140570000Y-84150000D03*
X140570000Y-81610000D03*
X140570000Y-79070000D03*
X140570000Y-76530000D03*
X140570000Y-73990000D03*
D10*
X115500000Y-56500000D03*
D13*
X156003334Y-110025000D03*
D14*
X159503334Y-110025000D03*
D15*
X115200000Y-62500000D03*
D16*
X115200000Y-64500000D03*
X115200000Y-66500000D03*
X115200000Y-68500000D03*
X115200000Y-70500000D03*
X115200000Y-72500000D03*
X115200000Y-74500000D03*
X115200000Y-76500000D03*
D17*
X144600000Y-62920000D03*
D18*
X144600000Y-65460000D03*
X144600000Y-68000000D03*
X144600000Y-70540000D03*
X144600000Y-73080000D03*
X144600000Y-75620000D03*
X144600000Y-78160000D03*
X144600000Y-80700000D03*
X144600000Y-83240000D03*
X144600000Y-85780000D03*
X144600000Y-88320000D03*
X144600000Y-90860000D03*
X144600000Y-93400000D03*
X144600000Y-95940000D03*
X144600000Y-98480000D03*
X170000000Y-98480000D03*
X170000000Y-95940000D03*
X170000000Y-93400000D03*
X170000000Y-90860000D03*
X170000000Y-88320000D03*
X170000000Y-85780000D03*
X170000000Y-83240000D03*
X170000000Y-80700000D03*
X170000000Y-78160000D03*
X170000000Y-75620000D03*
X170000000Y-73080000D03*
X170000000Y-70540000D03*
X170000000Y-68000000D03*
X170000000Y-65460000D03*
X170000000Y-62920000D03*
D10*
X99500000Y-111000000D03*
D13*
X146354168Y-110025000D03*
D14*
X149854168Y-110025000D03*
D13*
X136705000Y-110025000D03*
D14*
X140205000Y-110025000D03*
D11*
X97250000Y-88920000D03*
D12*
X97250000Y-91460000D03*
X97250000Y-94000000D03*
X97250000Y-96540000D03*
X97250000Y-99080000D03*
X97250000Y-101620000D03*
D13*
X165652500Y-110025000D03*
D14*
X169152500Y-110025000D03*
D10*
X176500000Y-111000000D03*
D19*
X116980000Y-111500000D03*
D20*
X114960000Y-111500000D03*
D21*
X113730000Y-111500000D03*
D19*
X115980000Y-111500000D03*
D20*
X118000000Y-111500000D03*
D21*
X119230000Y-111500000D03*
D22*
X120750000Y-112295000D03*
X112210000Y-112295000D03*
M02*
