%TF.GenerationSoftware,KiCad,Pcbnew,8.0.6*%
%TF.CreationDate,2025-06-09T20:20:09-07:00*%
%TF.ProjectId,ESP32_Clock_Gallery,45535033-325f-4436-9c6f-636b5f47616c,rev?*%
%TF.SameCoordinates,Original*%
%TF.FileFunction,Soldermask,Top*%
%TF.FilePolarity,Negative*%
%FSLAX46Y46*%
G04 Gerber Fmt 4.6, Leading zero omitted, Abs format (unit mm)*
G04 Created by KiCad (PCBNEW 8.0.6) date 2025-06-09 20:20:09*
%MOMM*%
%LPD*%
G01*
G04 APERTURE LIST*
G04 Aperture macros list*
%AMRoundRect*
0 Rectangle with rounded corners*
0 $1 Rounding radius*
0 $2 $3 $4 $5 $6 $7 $8 $9 X,Y pos of 4 corners*
0 Add a 4 corners polygon primitive as box body*
4,1,4,$2,$3,$4,$5,$6,$7,$8,$9,$2,$3,0*
0 Add four circle primitives for the rounded corners*
1,1,$1+$1,$2,$3*
1,1,$1+$1,$4,$5*
1,1,$1+$1,$6,$7*
1,1,$1+$1,$8,$9*
0 Add four rect primitives between the rounded corners*
20,1,$1+$1,$2,$3,$4,$5,0*
20,1,$1+$1,$4,$5,$6,$7,0*
20,1,$1+$1,$6,$7,$8,$9,0*
20,1,$1+$1,$8,$9,$2,$3,0*%
%AMFreePoly0*
4,1,19,0.500000,-0.750000,0.000000,-0.750000,0.000000,-0.744911,-0.071157,-0.744911,-0.207708,-0.704816,-0.327430,-0.627875,-0.420627,-0.520320,-0.479746,-0.390866,-0.500000,-0.250000,-0.500000,0.250000,-0.479746,0.390866,-0.420627,0.520320,-0.327430,0.627875,-0.207708,0.704816,-0.071157,0.744911,0.000000,0.744911,0.000000,0.750000,0.500000,0.750000,0.500000,-0.750000,0.500000,-0.750000,
$1*%
%AMFreePoly1*
4,1,19,0.000000,0.744911,0.071157,0.744911,0.207708,0.704816,0.327430,0.627875,0.420627,0.520320,0.479746,0.390866,0.500000,0.250000,0.500000,-0.250000,0.479746,-0.390866,0.420627,-0.520320,0.327430,-0.627875,0.207708,-0.704816,0.071157,-0.744911,0.000000,-0.744911,0.000000,-0.750000,-0.500000,-0.750000,-0.500000,0.750000,0.000000,0.750000,0.000000,0.744911,0.000000,0.744911,
$1*%
G04 Aperture macros list end*
%ADD10C,0.010000*%
%ADD11C,3.200000*%
%ADD12RoundRect,0.250000X-0.337500X-0.475000X0.337500X-0.475000X0.337500X0.475000X-0.337500X0.475000X0*%
%ADD13C,2.000000*%
%ADD14FreePoly0,90.000000*%
%ADD15FreePoly1,90.000000*%
%ADD16RoundRect,0.250000X-0.450000X0.350000X-0.450000X-0.350000X0.450000X-0.350000X0.450000X0.350000X0*%
%ADD17RoundRect,0.250000X-0.475000X0.337500X-0.475000X-0.337500X0.475000X-0.337500X0.475000X0.337500X0*%
%ADD18RoundRect,0.250000X0.337500X0.475000X-0.337500X0.475000X-0.337500X-0.475000X0.337500X-0.475000X0*%
%ADD19RoundRect,0.250000X-0.350000X-0.450000X0.350000X-0.450000X0.350000X0.450000X-0.350000X0.450000X0*%
%ADD20R,1.700000X1.700000*%
%ADD21O,1.700000X1.700000*%
%ADD22RoundRect,0.198500X0.198500X-0.553500X0.198500X0.553500X-0.198500X0.553500X-0.198500X-0.553500X0*%
%ADD23RoundRect,0.250000X0.450000X-0.350000X0.450000X0.350000X-0.450000X0.350000X-0.450000X-0.350000X0*%
%ADD24RoundRect,0.250000X0.350000X0.450000X-0.350000X0.450000X-0.350000X-0.450000X0.350000X-0.450000X0*%
%ADD25RoundRect,0.102000X-0.900000X-0.900000X0.900000X-0.900000X0.900000X0.900000X-0.900000X0.900000X0*%
%ADD26C,2.004000*%
%ADD27RoundRect,0.102000X0.654000X-0.654000X0.654000X0.654000X-0.654000X0.654000X-0.654000X-0.654000X0*%
%ADD28C,1.512000*%
%ADD29RoundRect,0.102000X-1.000000X-1.000000X1.000000X-1.000000X1.000000X1.000000X-1.000000X1.000000X0*%
%ADD30C,2.204000*%
%ADD31RoundRect,0.100500X-0.986500X-0.301500X0.986500X-0.301500X0.986500X0.301500X-0.986500X0.301500X0*%
%ADD32RoundRect,0.102000X-1.206500X-1.651000X1.206500X-1.651000X1.206500X1.651000X-1.206500X1.651000X0*%
%ADD33RoundRect,0.250000X-0.325000X-0.450000X0.325000X-0.450000X0.325000X0.450000X-0.325000X0.450000X0*%
%ADD34RoundRect,0.250000X0.475000X-0.337500X0.475000X0.337500X-0.475000X0.337500X-0.475000X-0.337500X0*%
%ADD35R,0.889000X1.473200*%
%ADD36RoundRect,0.250000X0.450000X-0.325000X0.450000X0.325000X-0.450000X0.325000X-0.450000X-0.325000X0*%
%ADD37RoundRect,0.102000X-0.300000X-0.775000X0.300000X-0.775000X0.300000X0.775000X-0.300000X0.775000X0*%
%ADD38RoundRect,0.102000X-0.600000X-0.900000X0.600000X-0.900000X0.600000X0.900000X-0.600000X0.900000X0*%
%ADD39RoundRect,0.102000X1.700000X-0.490000X1.700000X0.490000X-1.700000X0.490000X-1.700000X-0.490000X0*%
%ADD40RoundRect,0.059250X0.177750X-0.422750X0.177750X0.422750X-0.177750X0.422750X-0.177750X-0.422750X0*%
%ADD41RoundRect,0.102000X0.650000X-0.450000X0.650000X0.450000X-0.650000X0.450000X-0.650000X-0.450000X0*%
%ADD42O,1.204000X1.904000*%
G04 APERTURE END LIST*
D10*
X129545000Y-81130000D02*
X130245000Y-81130000D01*
X130245000Y-81520000D01*
X129545000Y-81520000D01*
X129545000Y-81530000D01*
X130245000Y-81530000D01*
X130245000Y-81920000D01*
X129545000Y-81920000D01*
X129545000Y-81930000D01*
X130245000Y-81930000D01*
X130245000Y-82320000D01*
X129545000Y-82320000D01*
X129545000Y-82330000D01*
X130245000Y-82330000D01*
X130245000Y-82720000D01*
X129545000Y-82720000D01*
X129545000Y-82845000D01*
X127255000Y-82845000D01*
X127255000Y-82720000D01*
X126555000Y-82720000D01*
X126555000Y-82330000D01*
X127255000Y-82330000D01*
X127255000Y-82320000D01*
X126555000Y-82320000D01*
X126555000Y-81930000D01*
X127255000Y-81930000D01*
X127255000Y-81920000D01*
X126555000Y-81920000D01*
X126555000Y-81530000D01*
X127255000Y-81530000D01*
X127255000Y-81520000D01*
X126555000Y-81520000D01*
X126555000Y-81130000D01*
X127255000Y-81130000D01*
X127255000Y-81005000D01*
X129545000Y-81005000D01*
X129545000Y-81130000D01*
G36*
X129545000Y-81130000D02*
G01*
X130245000Y-81130000D01*
X130245000Y-81520000D01*
X129545000Y-81520000D01*
X129545000Y-81530000D01*
X130245000Y-81530000D01*
X130245000Y-81920000D01*
X129545000Y-81920000D01*
X129545000Y-81930000D01*
X130245000Y-81930000D01*
X130245000Y-82320000D01*
X129545000Y-82320000D01*
X129545000Y-82330000D01*
X130245000Y-82330000D01*
X130245000Y-82720000D01*
X129545000Y-82720000D01*
X129545000Y-82845000D01*
X127255000Y-82845000D01*
X127255000Y-82720000D01*
X126555000Y-82720000D01*
X126555000Y-82330000D01*
X127255000Y-82330000D01*
X127255000Y-82320000D01*
X126555000Y-82320000D01*
X126555000Y-81930000D01*
X127255000Y-81930000D01*
X127255000Y-81920000D01*
X126555000Y-81920000D01*
X126555000Y-81530000D01*
X127255000Y-81530000D01*
X127255000Y-81520000D01*
X126555000Y-81520000D01*
X126555000Y-81130000D01*
X127255000Y-81130000D01*
X127255000Y-81005000D01*
X129545000Y-81005000D01*
X129545000Y-81130000D01*
G37*
X127610000Y-80735000D02*
X127610000Y-80746000D01*
X127609000Y-80757000D01*
X127607000Y-80768000D01*
X127605000Y-80779000D01*
X127603000Y-80789000D01*
X127600000Y-80800000D01*
X127596000Y-80810000D01*
X127592000Y-80820000D01*
X127587000Y-80830000D01*
X127582000Y-80840000D01*
X127576000Y-80849000D01*
X127570000Y-80858000D01*
X127563000Y-80867000D01*
X127556000Y-80876000D01*
X127548000Y-80883000D01*
X127541000Y-80891000D01*
X127532000Y-80898000D01*
X127523000Y-80905000D01*
X127514000Y-80911000D01*
X127505000Y-80917000D01*
X127495000Y-80922000D01*
X127485000Y-80927000D01*
X127475000Y-80931000D01*
X127465000Y-80935000D01*
X127454000Y-80938000D01*
X127444000Y-80940000D01*
X127433000Y-80942000D01*
X127422000Y-80944000D01*
X127411000Y-80945000D01*
X127400000Y-80945000D01*
X127389000Y-80945000D01*
X127378000Y-80944000D01*
X127367000Y-80942000D01*
X127356000Y-80940000D01*
X127346000Y-80938000D01*
X127335000Y-80935000D01*
X127325000Y-80931000D01*
X127315000Y-80927000D01*
X127305000Y-80922000D01*
X127295000Y-80917000D01*
X127286000Y-80911000D01*
X127277000Y-80905000D01*
X127268000Y-80898000D01*
X127259000Y-80891000D01*
X127252000Y-80883000D01*
X127244000Y-80876000D01*
X127237000Y-80867000D01*
X127230000Y-80858000D01*
X127224000Y-80849000D01*
X127218000Y-80840000D01*
X127213000Y-80830000D01*
X127208000Y-80820000D01*
X127204000Y-80810000D01*
X127200000Y-80800000D01*
X127197000Y-80789000D01*
X127195000Y-80779000D01*
X127193000Y-80768000D01*
X127191000Y-80757000D01*
X127190000Y-80746000D01*
X127190000Y-80735000D01*
X127190000Y-79955000D01*
X127610000Y-79955000D01*
X127610000Y-80735000D01*
G36*
X127610000Y-80735000D02*
G01*
X127610000Y-80746000D01*
X127609000Y-80757000D01*
X127607000Y-80768000D01*
X127605000Y-80779000D01*
X127603000Y-80789000D01*
X127600000Y-80800000D01*
X127596000Y-80810000D01*
X127592000Y-80820000D01*
X127587000Y-80830000D01*
X127582000Y-80840000D01*
X127576000Y-80849000D01*
X127570000Y-80858000D01*
X127563000Y-80867000D01*
X127556000Y-80876000D01*
X127548000Y-80883000D01*
X127541000Y-80891000D01*
X127532000Y-80898000D01*
X127523000Y-80905000D01*
X127514000Y-80911000D01*
X127505000Y-80917000D01*
X127495000Y-80922000D01*
X127485000Y-80927000D01*
X127475000Y-80931000D01*
X127465000Y-80935000D01*
X127454000Y-80938000D01*
X127444000Y-80940000D01*
X127433000Y-80942000D01*
X127422000Y-80944000D01*
X127411000Y-80945000D01*
X127400000Y-80945000D01*
X127389000Y-80945000D01*
X127378000Y-80944000D01*
X127367000Y-80942000D01*
X127356000Y-80940000D01*
X127346000Y-80938000D01*
X127335000Y-80935000D01*
X127325000Y-80931000D01*
X127315000Y-80927000D01*
X127305000Y-80922000D01*
X127295000Y-80917000D01*
X127286000Y-80911000D01*
X127277000Y-80905000D01*
X127268000Y-80898000D01*
X127259000Y-80891000D01*
X127252000Y-80883000D01*
X127244000Y-80876000D01*
X127237000Y-80867000D01*
X127230000Y-80858000D01*
X127224000Y-80849000D01*
X127218000Y-80840000D01*
X127213000Y-80830000D01*
X127208000Y-80820000D01*
X127204000Y-80810000D01*
X127200000Y-80800000D01*
X127197000Y-80789000D01*
X127195000Y-80779000D01*
X127193000Y-80768000D01*
X127191000Y-80757000D01*
X127190000Y-80746000D01*
X127190000Y-80735000D01*
X127190000Y-79955000D01*
X127610000Y-79955000D01*
X127610000Y-80735000D01*
G37*
X127422000Y-82906000D02*
X127433000Y-82908000D01*
X127444000Y-82910000D01*
X127454000Y-82912000D01*
X127465000Y-82915000D01*
X127475000Y-82919000D01*
X127485000Y-82923000D01*
X127495000Y-82928000D01*
X127505000Y-82933000D01*
X127514000Y-82939000D01*
X127523000Y-82945000D01*
X127532000Y-82952000D01*
X127541000Y-82959000D01*
X127548000Y-82967000D01*
X127556000Y-82974000D01*
X127563000Y-82983000D01*
X127570000Y-82992000D01*
X127576000Y-83001000D01*
X127582000Y-83010000D01*
X127587000Y-83020000D01*
X127592000Y-83030000D01*
X127596000Y-83040000D01*
X127600000Y-83050000D01*
X127603000Y-83061000D01*
X127605000Y-83071000D01*
X127607000Y-83082000D01*
X127609000Y-83093000D01*
X127610000Y-83104000D01*
X127610000Y-83115000D01*
X127610000Y-83895000D01*
X127190000Y-83895000D01*
X127190000Y-83115000D01*
X127190000Y-83104000D01*
X127191000Y-83093000D01*
X127193000Y-83082000D01*
X127195000Y-83071000D01*
X127197000Y-83061000D01*
X127200000Y-83050000D01*
X127204000Y-83040000D01*
X127208000Y-83030000D01*
X127213000Y-83020000D01*
X127218000Y-83010000D01*
X127224000Y-83001000D01*
X127230000Y-82992000D01*
X127237000Y-82983000D01*
X127244000Y-82974000D01*
X127252000Y-82967000D01*
X127259000Y-82959000D01*
X127268000Y-82952000D01*
X127277000Y-82945000D01*
X127286000Y-82939000D01*
X127295000Y-82933000D01*
X127305000Y-82928000D01*
X127315000Y-82923000D01*
X127325000Y-82919000D01*
X127335000Y-82915000D01*
X127346000Y-82912000D01*
X127356000Y-82910000D01*
X127367000Y-82908000D01*
X127378000Y-82906000D01*
X127389000Y-82905000D01*
X127400000Y-82905000D01*
X127411000Y-82905000D01*
X127422000Y-82906000D01*
G36*
X127422000Y-82906000D02*
G01*
X127433000Y-82908000D01*
X127444000Y-82910000D01*
X127454000Y-82912000D01*
X127465000Y-82915000D01*
X127475000Y-82919000D01*
X127485000Y-82923000D01*
X127495000Y-82928000D01*
X127505000Y-82933000D01*
X127514000Y-82939000D01*
X127523000Y-82945000D01*
X127532000Y-82952000D01*
X127541000Y-82959000D01*
X127548000Y-82967000D01*
X127556000Y-82974000D01*
X127563000Y-82983000D01*
X127570000Y-82992000D01*
X127576000Y-83001000D01*
X127582000Y-83010000D01*
X127587000Y-83020000D01*
X127592000Y-83030000D01*
X127596000Y-83040000D01*
X127600000Y-83050000D01*
X127603000Y-83061000D01*
X127605000Y-83071000D01*
X127607000Y-83082000D01*
X127609000Y-83093000D01*
X127610000Y-83104000D01*
X127610000Y-83115000D01*
X127610000Y-83895000D01*
X127190000Y-83895000D01*
X127190000Y-83115000D01*
X127190000Y-83104000D01*
X127191000Y-83093000D01*
X127193000Y-83082000D01*
X127195000Y-83071000D01*
X127197000Y-83061000D01*
X127200000Y-83050000D01*
X127204000Y-83040000D01*
X127208000Y-83030000D01*
X127213000Y-83020000D01*
X127218000Y-83010000D01*
X127224000Y-83001000D01*
X127230000Y-82992000D01*
X127237000Y-82983000D01*
X127244000Y-82974000D01*
X127252000Y-82967000D01*
X127259000Y-82959000D01*
X127268000Y-82952000D01*
X127277000Y-82945000D01*
X127286000Y-82939000D01*
X127295000Y-82933000D01*
X127305000Y-82928000D01*
X127315000Y-82923000D01*
X127325000Y-82919000D01*
X127335000Y-82915000D01*
X127346000Y-82912000D01*
X127356000Y-82910000D01*
X127367000Y-82908000D01*
X127378000Y-82906000D01*
X127389000Y-82905000D01*
X127400000Y-82905000D01*
X127411000Y-82905000D01*
X127422000Y-82906000D01*
G37*
X128110000Y-80735000D02*
X128110000Y-80746000D01*
X128109000Y-80757000D01*
X128107000Y-80768000D01*
X128105000Y-80779000D01*
X128103000Y-80789000D01*
X128100000Y-80800000D01*
X128096000Y-80810000D01*
X128092000Y-80820000D01*
X128087000Y-80830000D01*
X128082000Y-80840000D01*
X128076000Y-80849000D01*
X128070000Y-80858000D01*
X128063000Y-80867000D01*
X128056000Y-80876000D01*
X128048000Y-80883000D01*
X128041000Y-80891000D01*
X128032000Y-80898000D01*
X128023000Y-80905000D01*
X128014000Y-80911000D01*
X128005000Y-80917000D01*
X127995000Y-80922000D01*
X127985000Y-80927000D01*
X127975000Y-80931000D01*
X127965000Y-80935000D01*
X127954000Y-80938000D01*
X127944000Y-80940000D01*
X127933000Y-80942000D01*
X127922000Y-80944000D01*
X127911000Y-80945000D01*
X127900000Y-80945000D01*
X127889000Y-80945000D01*
X127878000Y-80944000D01*
X127867000Y-80942000D01*
X127856000Y-80940000D01*
X127846000Y-80938000D01*
X127835000Y-80935000D01*
X127825000Y-80931000D01*
X127815000Y-80927000D01*
X127805000Y-80922000D01*
X127795000Y-80917000D01*
X127786000Y-80911000D01*
X127777000Y-80905000D01*
X127768000Y-80898000D01*
X127759000Y-80891000D01*
X127752000Y-80883000D01*
X127744000Y-80876000D01*
X127737000Y-80867000D01*
X127730000Y-80858000D01*
X127724000Y-80849000D01*
X127718000Y-80840000D01*
X127713000Y-80830000D01*
X127708000Y-80820000D01*
X127704000Y-80810000D01*
X127700000Y-80800000D01*
X127697000Y-80789000D01*
X127695000Y-80779000D01*
X127693000Y-80768000D01*
X127691000Y-80757000D01*
X127690000Y-80746000D01*
X127690000Y-80735000D01*
X127690000Y-79955000D01*
X128110000Y-79955000D01*
X128110000Y-80735000D01*
G36*
X128110000Y-80735000D02*
G01*
X128110000Y-80746000D01*
X128109000Y-80757000D01*
X128107000Y-80768000D01*
X128105000Y-80779000D01*
X128103000Y-80789000D01*
X128100000Y-80800000D01*
X128096000Y-80810000D01*
X128092000Y-80820000D01*
X128087000Y-80830000D01*
X128082000Y-80840000D01*
X128076000Y-80849000D01*
X128070000Y-80858000D01*
X128063000Y-80867000D01*
X128056000Y-80876000D01*
X128048000Y-80883000D01*
X128041000Y-80891000D01*
X128032000Y-80898000D01*
X128023000Y-80905000D01*
X128014000Y-80911000D01*
X128005000Y-80917000D01*
X127995000Y-80922000D01*
X127985000Y-80927000D01*
X127975000Y-80931000D01*
X127965000Y-80935000D01*
X127954000Y-80938000D01*
X127944000Y-80940000D01*
X127933000Y-80942000D01*
X127922000Y-80944000D01*
X127911000Y-80945000D01*
X127900000Y-80945000D01*
X127889000Y-80945000D01*
X127878000Y-80944000D01*
X127867000Y-80942000D01*
X127856000Y-80940000D01*
X127846000Y-80938000D01*
X127835000Y-80935000D01*
X127825000Y-80931000D01*
X127815000Y-80927000D01*
X127805000Y-80922000D01*
X127795000Y-80917000D01*
X127786000Y-80911000D01*
X127777000Y-80905000D01*
X127768000Y-80898000D01*
X127759000Y-80891000D01*
X127752000Y-80883000D01*
X127744000Y-80876000D01*
X127737000Y-80867000D01*
X127730000Y-80858000D01*
X127724000Y-80849000D01*
X127718000Y-80840000D01*
X127713000Y-80830000D01*
X127708000Y-80820000D01*
X127704000Y-80810000D01*
X127700000Y-80800000D01*
X127697000Y-80789000D01*
X127695000Y-80779000D01*
X127693000Y-80768000D01*
X127691000Y-80757000D01*
X127690000Y-80746000D01*
X127690000Y-80735000D01*
X127690000Y-79955000D01*
X128110000Y-79955000D01*
X128110000Y-80735000D01*
G37*
X127922000Y-82906000D02*
X127933000Y-82908000D01*
X127944000Y-82910000D01*
X127954000Y-82912000D01*
X127965000Y-82915000D01*
X127975000Y-82919000D01*
X127985000Y-82923000D01*
X127995000Y-82928000D01*
X128005000Y-82933000D01*
X128014000Y-82939000D01*
X128023000Y-82945000D01*
X128032000Y-82952000D01*
X128041000Y-82959000D01*
X128048000Y-82967000D01*
X128056000Y-82974000D01*
X128063000Y-82983000D01*
X128070000Y-82992000D01*
X128076000Y-83001000D01*
X128082000Y-83010000D01*
X128087000Y-83020000D01*
X128092000Y-83030000D01*
X128096000Y-83040000D01*
X128100000Y-83050000D01*
X128103000Y-83061000D01*
X128105000Y-83071000D01*
X128107000Y-83082000D01*
X128109000Y-83093000D01*
X128110000Y-83104000D01*
X128110000Y-83115000D01*
X128110000Y-83895000D01*
X127690000Y-83895000D01*
X127690000Y-83115000D01*
X127690000Y-83104000D01*
X127691000Y-83093000D01*
X127693000Y-83082000D01*
X127695000Y-83071000D01*
X127697000Y-83061000D01*
X127700000Y-83050000D01*
X127704000Y-83040000D01*
X127708000Y-83030000D01*
X127713000Y-83020000D01*
X127718000Y-83010000D01*
X127724000Y-83001000D01*
X127730000Y-82992000D01*
X127737000Y-82983000D01*
X127744000Y-82974000D01*
X127752000Y-82967000D01*
X127759000Y-82959000D01*
X127768000Y-82952000D01*
X127777000Y-82945000D01*
X127786000Y-82939000D01*
X127795000Y-82933000D01*
X127805000Y-82928000D01*
X127815000Y-82923000D01*
X127825000Y-82919000D01*
X127835000Y-82915000D01*
X127846000Y-82912000D01*
X127856000Y-82910000D01*
X127867000Y-82908000D01*
X127878000Y-82906000D01*
X127889000Y-82905000D01*
X127900000Y-82905000D01*
X127911000Y-82905000D01*
X127922000Y-82906000D01*
G36*
X127922000Y-82906000D02*
G01*
X127933000Y-82908000D01*
X127944000Y-82910000D01*
X127954000Y-82912000D01*
X127965000Y-82915000D01*
X127975000Y-82919000D01*
X127985000Y-82923000D01*
X127995000Y-82928000D01*
X128005000Y-82933000D01*
X128014000Y-82939000D01*
X128023000Y-82945000D01*
X128032000Y-82952000D01*
X128041000Y-82959000D01*
X128048000Y-82967000D01*
X128056000Y-82974000D01*
X128063000Y-82983000D01*
X128070000Y-82992000D01*
X128076000Y-83001000D01*
X128082000Y-83010000D01*
X128087000Y-83020000D01*
X128092000Y-83030000D01*
X128096000Y-83040000D01*
X128100000Y-83050000D01*
X128103000Y-83061000D01*
X128105000Y-83071000D01*
X128107000Y-83082000D01*
X128109000Y-83093000D01*
X128110000Y-83104000D01*
X128110000Y-83115000D01*
X128110000Y-83895000D01*
X127690000Y-83895000D01*
X127690000Y-83115000D01*
X127690000Y-83104000D01*
X127691000Y-83093000D01*
X127693000Y-83082000D01*
X127695000Y-83071000D01*
X127697000Y-83061000D01*
X127700000Y-83050000D01*
X127704000Y-83040000D01*
X127708000Y-83030000D01*
X127713000Y-83020000D01*
X127718000Y-83010000D01*
X127724000Y-83001000D01*
X127730000Y-82992000D01*
X127737000Y-82983000D01*
X127744000Y-82974000D01*
X127752000Y-82967000D01*
X127759000Y-82959000D01*
X127768000Y-82952000D01*
X127777000Y-82945000D01*
X127786000Y-82939000D01*
X127795000Y-82933000D01*
X127805000Y-82928000D01*
X127815000Y-82923000D01*
X127825000Y-82919000D01*
X127835000Y-82915000D01*
X127846000Y-82912000D01*
X127856000Y-82910000D01*
X127867000Y-82908000D01*
X127878000Y-82906000D01*
X127889000Y-82905000D01*
X127900000Y-82905000D01*
X127911000Y-82905000D01*
X127922000Y-82906000D01*
G37*
X128610000Y-80735000D02*
X128610000Y-80746000D01*
X128609000Y-80757000D01*
X128607000Y-80768000D01*
X128605000Y-80779000D01*
X128603000Y-80789000D01*
X128600000Y-80800000D01*
X128596000Y-80810000D01*
X128592000Y-80820000D01*
X128587000Y-80830000D01*
X128582000Y-80840000D01*
X128576000Y-80849000D01*
X128570000Y-80858000D01*
X128563000Y-80867000D01*
X128556000Y-80876000D01*
X128548000Y-80883000D01*
X128541000Y-80891000D01*
X128532000Y-80898000D01*
X128523000Y-80905000D01*
X128514000Y-80911000D01*
X128505000Y-80917000D01*
X128495000Y-80922000D01*
X128485000Y-80927000D01*
X128475000Y-80931000D01*
X128465000Y-80935000D01*
X128454000Y-80938000D01*
X128444000Y-80940000D01*
X128433000Y-80942000D01*
X128422000Y-80944000D01*
X128411000Y-80945000D01*
X128400000Y-80945000D01*
X128389000Y-80945000D01*
X128378000Y-80944000D01*
X128367000Y-80942000D01*
X128356000Y-80940000D01*
X128346000Y-80938000D01*
X128335000Y-80935000D01*
X128325000Y-80931000D01*
X128315000Y-80927000D01*
X128305000Y-80922000D01*
X128295000Y-80917000D01*
X128286000Y-80911000D01*
X128277000Y-80905000D01*
X128268000Y-80898000D01*
X128259000Y-80891000D01*
X128252000Y-80883000D01*
X128244000Y-80876000D01*
X128237000Y-80867000D01*
X128230000Y-80858000D01*
X128224000Y-80849000D01*
X128218000Y-80840000D01*
X128213000Y-80830000D01*
X128208000Y-80820000D01*
X128204000Y-80810000D01*
X128200000Y-80800000D01*
X128197000Y-80789000D01*
X128195000Y-80779000D01*
X128193000Y-80768000D01*
X128191000Y-80757000D01*
X128190000Y-80746000D01*
X128190000Y-80735000D01*
X128190000Y-79955000D01*
X128610000Y-79955000D01*
X128610000Y-80735000D01*
G36*
X128610000Y-80735000D02*
G01*
X128610000Y-80746000D01*
X128609000Y-80757000D01*
X128607000Y-80768000D01*
X128605000Y-80779000D01*
X128603000Y-80789000D01*
X128600000Y-80800000D01*
X128596000Y-80810000D01*
X128592000Y-80820000D01*
X128587000Y-80830000D01*
X128582000Y-80840000D01*
X128576000Y-80849000D01*
X128570000Y-80858000D01*
X128563000Y-80867000D01*
X128556000Y-80876000D01*
X128548000Y-80883000D01*
X128541000Y-80891000D01*
X128532000Y-80898000D01*
X128523000Y-80905000D01*
X128514000Y-80911000D01*
X128505000Y-80917000D01*
X128495000Y-80922000D01*
X128485000Y-80927000D01*
X128475000Y-80931000D01*
X128465000Y-80935000D01*
X128454000Y-80938000D01*
X128444000Y-80940000D01*
X128433000Y-80942000D01*
X128422000Y-80944000D01*
X128411000Y-80945000D01*
X128400000Y-80945000D01*
X128389000Y-80945000D01*
X128378000Y-80944000D01*
X128367000Y-80942000D01*
X128356000Y-80940000D01*
X128346000Y-80938000D01*
X128335000Y-80935000D01*
X128325000Y-80931000D01*
X128315000Y-80927000D01*
X128305000Y-80922000D01*
X128295000Y-80917000D01*
X128286000Y-80911000D01*
X128277000Y-80905000D01*
X128268000Y-80898000D01*
X128259000Y-80891000D01*
X128252000Y-80883000D01*
X128244000Y-80876000D01*
X128237000Y-80867000D01*
X128230000Y-80858000D01*
X128224000Y-80849000D01*
X128218000Y-80840000D01*
X128213000Y-80830000D01*
X128208000Y-80820000D01*
X128204000Y-80810000D01*
X128200000Y-80800000D01*
X128197000Y-80789000D01*
X128195000Y-80779000D01*
X128193000Y-80768000D01*
X128191000Y-80757000D01*
X128190000Y-80746000D01*
X128190000Y-80735000D01*
X128190000Y-79955000D01*
X128610000Y-79955000D01*
X128610000Y-80735000D01*
G37*
X128422000Y-82906000D02*
X128433000Y-82908000D01*
X128444000Y-82910000D01*
X128454000Y-82912000D01*
X128465000Y-82915000D01*
X128475000Y-82919000D01*
X128485000Y-82923000D01*
X128495000Y-82928000D01*
X128505000Y-82933000D01*
X128514000Y-82939000D01*
X128523000Y-82945000D01*
X128532000Y-82952000D01*
X128541000Y-82959000D01*
X128548000Y-82967000D01*
X128556000Y-82974000D01*
X128563000Y-82983000D01*
X128570000Y-82992000D01*
X128576000Y-83001000D01*
X128582000Y-83010000D01*
X128587000Y-83020000D01*
X128592000Y-83030000D01*
X128596000Y-83040000D01*
X128600000Y-83050000D01*
X128603000Y-83061000D01*
X128605000Y-83071000D01*
X128607000Y-83082000D01*
X128609000Y-83093000D01*
X128610000Y-83104000D01*
X128610000Y-83115000D01*
X128610000Y-83895000D01*
X128190000Y-83895000D01*
X128190000Y-83115000D01*
X128190000Y-83104000D01*
X128191000Y-83093000D01*
X128193000Y-83082000D01*
X128195000Y-83071000D01*
X128197000Y-83061000D01*
X128200000Y-83050000D01*
X128204000Y-83040000D01*
X128208000Y-83030000D01*
X128213000Y-83020000D01*
X128218000Y-83010000D01*
X128224000Y-83001000D01*
X128230000Y-82992000D01*
X128237000Y-82983000D01*
X128244000Y-82974000D01*
X128252000Y-82967000D01*
X128259000Y-82959000D01*
X128268000Y-82952000D01*
X128277000Y-82945000D01*
X128286000Y-82939000D01*
X128295000Y-82933000D01*
X128305000Y-82928000D01*
X128315000Y-82923000D01*
X128325000Y-82919000D01*
X128335000Y-82915000D01*
X128346000Y-82912000D01*
X128356000Y-82910000D01*
X128367000Y-82908000D01*
X128378000Y-82906000D01*
X128389000Y-82905000D01*
X128400000Y-82905000D01*
X128411000Y-82905000D01*
X128422000Y-82906000D01*
G36*
X128422000Y-82906000D02*
G01*
X128433000Y-82908000D01*
X128444000Y-82910000D01*
X128454000Y-82912000D01*
X128465000Y-82915000D01*
X128475000Y-82919000D01*
X128485000Y-82923000D01*
X128495000Y-82928000D01*
X128505000Y-82933000D01*
X128514000Y-82939000D01*
X128523000Y-82945000D01*
X128532000Y-82952000D01*
X128541000Y-82959000D01*
X128548000Y-82967000D01*
X128556000Y-82974000D01*
X128563000Y-82983000D01*
X128570000Y-82992000D01*
X128576000Y-83001000D01*
X128582000Y-83010000D01*
X128587000Y-83020000D01*
X128592000Y-83030000D01*
X128596000Y-83040000D01*
X128600000Y-83050000D01*
X128603000Y-83061000D01*
X128605000Y-83071000D01*
X128607000Y-83082000D01*
X128609000Y-83093000D01*
X128610000Y-83104000D01*
X128610000Y-83115000D01*
X128610000Y-83895000D01*
X128190000Y-83895000D01*
X128190000Y-83115000D01*
X128190000Y-83104000D01*
X128191000Y-83093000D01*
X128193000Y-83082000D01*
X128195000Y-83071000D01*
X128197000Y-83061000D01*
X128200000Y-83050000D01*
X128204000Y-83040000D01*
X128208000Y-83030000D01*
X128213000Y-83020000D01*
X128218000Y-83010000D01*
X128224000Y-83001000D01*
X128230000Y-82992000D01*
X128237000Y-82983000D01*
X128244000Y-82974000D01*
X128252000Y-82967000D01*
X128259000Y-82959000D01*
X128268000Y-82952000D01*
X128277000Y-82945000D01*
X128286000Y-82939000D01*
X128295000Y-82933000D01*
X128305000Y-82928000D01*
X128315000Y-82923000D01*
X128325000Y-82919000D01*
X128335000Y-82915000D01*
X128346000Y-82912000D01*
X128356000Y-82910000D01*
X128367000Y-82908000D01*
X128378000Y-82906000D01*
X128389000Y-82905000D01*
X128400000Y-82905000D01*
X128411000Y-82905000D01*
X128422000Y-82906000D01*
G37*
X129110000Y-80735000D02*
X129110000Y-80746000D01*
X129109000Y-80757000D01*
X129107000Y-80768000D01*
X129105000Y-80779000D01*
X129103000Y-80789000D01*
X129100000Y-80800000D01*
X129096000Y-80810000D01*
X129092000Y-80820000D01*
X129087000Y-80830000D01*
X129082000Y-80840000D01*
X129076000Y-80849000D01*
X129070000Y-80858000D01*
X129063000Y-80867000D01*
X129056000Y-80876000D01*
X129048000Y-80883000D01*
X129041000Y-80891000D01*
X129032000Y-80898000D01*
X129023000Y-80905000D01*
X129014000Y-80911000D01*
X129005000Y-80917000D01*
X128995000Y-80922000D01*
X128985000Y-80927000D01*
X128975000Y-80931000D01*
X128965000Y-80935000D01*
X128954000Y-80938000D01*
X128944000Y-80940000D01*
X128933000Y-80942000D01*
X128922000Y-80944000D01*
X128911000Y-80945000D01*
X128900000Y-80945000D01*
X128889000Y-80945000D01*
X128878000Y-80944000D01*
X128867000Y-80942000D01*
X128856000Y-80940000D01*
X128846000Y-80938000D01*
X128835000Y-80935000D01*
X128825000Y-80931000D01*
X128815000Y-80927000D01*
X128805000Y-80922000D01*
X128795000Y-80917000D01*
X128786000Y-80911000D01*
X128777000Y-80905000D01*
X128768000Y-80898000D01*
X128759000Y-80891000D01*
X128752000Y-80883000D01*
X128744000Y-80876000D01*
X128737000Y-80867000D01*
X128730000Y-80858000D01*
X128724000Y-80849000D01*
X128718000Y-80840000D01*
X128713000Y-80830000D01*
X128708000Y-80820000D01*
X128704000Y-80810000D01*
X128700000Y-80800000D01*
X128697000Y-80789000D01*
X128695000Y-80779000D01*
X128693000Y-80768000D01*
X128691000Y-80757000D01*
X128690000Y-80746000D01*
X128690000Y-80735000D01*
X128690000Y-79955000D01*
X129110000Y-79955000D01*
X129110000Y-80735000D01*
G36*
X129110000Y-80735000D02*
G01*
X129110000Y-80746000D01*
X129109000Y-80757000D01*
X129107000Y-80768000D01*
X129105000Y-80779000D01*
X129103000Y-80789000D01*
X129100000Y-80800000D01*
X129096000Y-80810000D01*
X129092000Y-80820000D01*
X129087000Y-80830000D01*
X129082000Y-80840000D01*
X129076000Y-80849000D01*
X129070000Y-80858000D01*
X129063000Y-80867000D01*
X129056000Y-80876000D01*
X129048000Y-80883000D01*
X129041000Y-80891000D01*
X129032000Y-80898000D01*
X129023000Y-80905000D01*
X129014000Y-80911000D01*
X129005000Y-80917000D01*
X128995000Y-80922000D01*
X128985000Y-80927000D01*
X128975000Y-80931000D01*
X128965000Y-80935000D01*
X128954000Y-80938000D01*
X128944000Y-80940000D01*
X128933000Y-80942000D01*
X128922000Y-80944000D01*
X128911000Y-80945000D01*
X128900000Y-80945000D01*
X128889000Y-80945000D01*
X128878000Y-80944000D01*
X128867000Y-80942000D01*
X128856000Y-80940000D01*
X128846000Y-80938000D01*
X128835000Y-80935000D01*
X128825000Y-80931000D01*
X128815000Y-80927000D01*
X128805000Y-80922000D01*
X128795000Y-80917000D01*
X128786000Y-80911000D01*
X128777000Y-80905000D01*
X128768000Y-80898000D01*
X128759000Y-80891000D01*
X128752000Y-80883000D01*
X128744000Y-80876000D01*
X128737000Y-80867000D01*
X128730000Y-80858000D01*
X128724000Y-80849000D01*
X128718000Y-80840000D01*
X128713000Y-80830000D01*
X128708000Y-80820000D01*
X128704000Y-80810000D01*
X128700000Y-80800000D01*
X128697000Y-80789000D01*
X128695000Y-80779000D01*
X128693000Y-80768000D01*
X128691000Y-80757000D01*
X128690000Y-80746000D01*
X128690000Y-80735000D01*
X128690000Y-79955000D01*
X129110000Y-79955000D01*
X129110000Y-80735000D01*
G37*
X128922000Y-82906000D02*
X128933000Y-82908000D01*
X128944000Y-82910000D01*
X128954000Y-82912000D01*
X128965000Y-82915000D01*
X128975000Y-82919000D01*
X128985000Y-82923000D01*
X128995000Y-82928000D01*
X129005000Y-82933000D01*
X129014000Y-82939000D01*
X129023000Y-82945000D01*
X129032000Y-82952000D01*
X129041000Y-82959000D01*
X129048000Y-82967000D01*
X129056000Y-82974000D01*
X129063000Y-82983000D01*
X129070000Y-82992000D01*
X129076000Y-83001000D01*
X129082000Y-83010000D01*
X129087000Y-83020000D01*
X129092000Y-83030000D01*
X129096000Y-83040000D01*
X129100000Y-83050000D01*
X129103000Y-83061000D01*
X129105000Y-83071000D01*
X129107000Y-83082000D01*
X129109000Y-83093000D01*
X129110000Y-83104000D01*
X129110000Y-83115000D01*
X129110000Y-83895000D01*
X128690000Y-83895000D01*
X128690000Y-83115000D01*
X128690000Y-83104000D01*
X128691000Y-83093000D01*
X128693000Y-83082000D01*
X128695000Y-83071000D01*
X128697000Y-83061000D01*
X128700000Y-83050000D01*
X128704000Y-83040000D01*
X128708000Y-83030000D01*
X128713000Y-83020000D01*
X128718000Y-83010000D01*
X128724000Y-83001000D01*
X128730000Y-82992000D01*
X128737000Y-82983000D01*
X128744000Y-82974000D01*
X128752000Y-82967000D01*
X128759000Y-82959000D01*
X128768000Y-82952000D01*
X128777000Y-82945000D01*
X128786000Y-82939000D01*
X128795000Y-82933000D01*
X128805000Y-82928000D01*
X128815000Y-82923000D01*
X128825000Y-82919000D01*
X128835000Y-82915000D01*
X128846000Y-82912000D01*
X128856000Y-82910000D01*
X128867000Y-82908000D01*
X128878000Y-82906000D01*
X128889000Y-82905000D01*
X128900000Y-82905000D01*
X128911000Y-82905000D01*
X128922000Y-82906000D01*
G36*
X128922000Y-82906000D02*
G01*
X128933000Y-82908000D01*
X128944000Y-82910000D01*
X128954000Y-82912000D01*
X128965000Y-82915000D01*
X128975000Y-82919000D01*
X128985000Y-82923000D01*
X128995000Y-82928000D01*
X129005000Y-82933000D01*
X129014000Y-82939000D01*
X129023000Y-82945000D01*
X129032000Y-82952000D01*
X129041000Y-82959000D01*
X129048000Y-82967000D01*
X129056000Y-82974000D01*
X129063000Y-82983000D01*
X129070000Y-82992000D01*
X129076000Y-83001000D01*
X129082000Y-83010000D01*
X129087000Y-83020000D01*
X129092000Y-83030000D01*
X129096000Y-83040000D01*
X129100000Y-83050000D01*
X129103000Y-83061000D01*
X129105000Y-83071000D01*
X129107000Y-83082000D01*
X129109000Y-83093000D01*
X129110000Y-83104000D01*
X129110000Y-83115000D01*
X129110000Y-83895000D01*
X128690000Y-83895000D01*
X128690000Y-83115000D01*
X128690000Y-83104000D01*
X128691000Y-83093000D01*
X128693000Y-83082000D01*
X128695000Y-83071000D01*
X128697000Y-83061000D01*
X128700000Y-83050000D01*
X128704000Y-83040000D01*
X128708000Y-83030000D01*
X128713000Y-83020000D01*
X128718000Y-83010000D01*
X128724000Y-83001000D01*
X128730000Y-82992000D01*
X128737000Y-82983000D01*
X128744000Y-82974000D01*
X128752000Y-82967000D01*
X128759000Y-82959000D01*
X128768000Y-82952000D01*
X128777000Y-82945000D01*
X128786000Y-82939000D01*
X128795000Y-82933000D01*
X128805000Y-82928000D01*
X128815000Y-82923000D01*
X128825000Y-82919000D01*
X128835000Y-82915000D01*
X128846000Y-82912000D01*
X128856000Y-82910000D01*
X128867000Y-82908000D01*
X128878000Y-82906000D01*
X128889000Y-82905000D01*
X128900000Y-82905000D01*
X128911000Y-82905000D01*
X128922000Y-82906000D01*
G37*
X129610000Y-80735000D02*
X129610000Y-80746000D01*
X129609000Y-80757000D01*
X129607000Y-80768000D01*
X129605000Y-80779000D01*
X129603000Y-80789000D01*
X129600000Y-80800000D01*
X129596000Y-80810000D01*
X129592000Y-80820000D01*
X129587000Y-80830000D01*
X129582000Y-80840000D01*
X129576000Y-80849000D01*
X129570000Y-80858000D01*
X129563000Y-80867000D01*
X129556000Y-80876000D01*
X129548000Y-80883000D01*
X129541000Y-80891000D01*
X129532000Y-80898000D01*
X129523000Y-80905000D01*
X129514000Y-80911000D01*
X129505000Y-80917000D01*
X129495000Y-80922000D01*
X129485000Y-80927000D01*
X129475000Y-80931000D01*
X129465000Y-80935000D01*
X129454000Y-80938000D01*
X129444000Y-80940000D01*
X129433000Y-80942000D01*
X129422000Y-80944000D01*
X129411000Y-80945000D01*
X129400000Y-80945000D01*
X129389000Y-80945000D01*
X129378000Y-80944000D01*
X129367000Y-80942000D01*
X129356000Y-80940000D01*
X129346000Y-80938000D01*
X129335000Y-80935000D01*
X129325000Y-80931000D01*
X129315000Y-80927000D01*
X129305000Y-80922000D01*
X129295000Y-80917000D01*
X129286000Y-80911000D01*
X129277000Y-80905000D01*
X129268000Y-80898000D01*
X129259000Y-80891000D01*
X129252000Y-80883000D01*
X129244000Y-80876000D01*
X129237000Y-80867000D01*
X129230000Y-80858000D01*
X129224000Y-80849000D01*
X129218000Y-80840000D01*
X129213000Y-80830000D01*
X129208000Y-80820000D01*
X129204000Y-80810000D01*
X129200000Y-80800000D01*
X129197000Y-80789000D01*
X129195000Y-80779000D01*
X129193000Y-80768000D01*
X129191000Y-80757000D01*
X129190000Y-80746000D01*
X129190000Y-80735000D01*
X129190000Y-79955000D01*
X129610000Y-79955000D01*
X129610000Y-80735000D01*
G36*
X129610000Y-80735000D02*
G01*
X129610000Y-80746000D01*
X129609000Y-80757000D01*
X129607000Y-80768000D01*
X129605000Y-80779000D01*
X129603000Y-80789000D01*
X129600000Y-80800000D01*
X129596000Y-80810000D01*
X129592000Y-80820000D01*
X129587000Y-80830000D01*
X129582000Y-80840000D01*
X129576000Y-80849000D01*
X129570000Y-80858000D01*
X129563000Y-80867000D01*
X129556000Y-80876000D01*
X129548000Y-80883000D01*
X129541000Y-80891000D01*
X129532000Y-80898000D01*
X129523000Y-80905000D01*
X129514000Y-80911000D01*
X129505000Y-80917000D01*
X129495000Y-80922000D01*
X129485000Y-80927000D01*
X129475000Y-80931000D01*
X129465000Y-80935000D01*
X129454000Y-80938000D01*
X129444000Y-80940000D01*
X129433000Y-80942000D01*
X129422000Y-80944000D01*
X129411000Y-80945000D01*
X129400000Y-80945000D01*
X129389000Y-80945000D01*
X129378000Y-80944000D01*
X129367000Y-80942000D01*
X129356000Y-80940000D01*
X129346000Y-80938000D01*
X129335000Y-80935000D01*
X129325000Y-80931000D01*
X129315000Y-80927000D01*
X129305000Y-80922000D01*
X129295000Y-80917000D01*
X129286000Y-80911000D01*
X129277000Y-80905000D01*
X129268000Y-80898000D01*
X129259000Y-80891000D01*
X129252000Y-80883000D01*
X129244000Y-80876000D01*
X129237000Y-80867000D01*
X129230000Y-80858000D01*
X129224000Y-80849000D01*
X129218000Y-80840000D01*
X129213000Y-80830000D01*
X129208000Y-80820000D01*
X129204000Y-80810000D01*
X129200000Y-80800000D01*
X129197000Y-80789000D01*
X129195000Y-80779000D01*
X129193000Y-80768000D01*
X129191000Y-80757000D01*
X129190000Y-80746000D01*
X129190000Y-80735000D01*
X129190000Y-79955000D01*
X129610000Y-79955000D01*
X129610000Y-80735000D01*
G37*
X129422000Y-82906000D02*
X129433000Y-82908000D01*
X129444000Y-82910000D01*
X129454000Y-82912000D01*
X129465000Y-82915000D01*
X129475000Y-82919000D01*
X129485000Y-82923000D01*
X129495000Y-82928000D01*
X129505000Y-82933000D01*
X129514000Y-82939000D01*
X129523000Y-82945000D01*
X129532000Y-82952000D01*
X129541000Y-82959000D01*
X129548000Y-82967000D01*
X129556000Y-82974000D01*
X129563000Y-82983000D01*
X129570000Y-82992000D01*
X129576000Y-83001000D01*
X129582000Y-83010000D01*
X129587000Y-83020000D01*
X129592000Y-83030000D01*
X129596000Y-83040000D01*
X129600000Y-83050000D01*
X129603000Y-83061000D01*
X129605000Y-83071000D01*
X129607000Y-83082000D01*
X129609000Y-83093000D01*
X129610000Y-83104000D01*
X129610000Y-83115000D01*
X129610000Y-83895000D01*
X129190000Y-83895000D01*
X129190000Y-83115000D01*
X129190000Y-83104000D01*
X129191000Y-83093000D01*
X129193000Y-83082000D01*
X129195000Y-83071000D01*
X129197000Y-83061000D01*
X129200000Y-83050000D01*
X129204000Y-83040000D01*
X129208000Y-83030000D01*
X129213000Y-83020000D01*
X129218000Y-83010000D01*
X129224000Y-83001000D01*
X129230000Y-82992000D01*
X129237000Y-82983000D01*
X129244000Y-82974000D01*
X129252000Y-82967000D01*
X129259000Y-82959000D01*
X129268000Y-82952000D01*
X129277000Y-82945000D01*
X129286000Y-82939000D01*
X129295000Y-82933000D01*
X129305000Y-82928000D01*
X129315000Y-82923000D01*
X129325000Y-82919000D01*
X129335000Y-82915000D01*
X129346000Y-82912000D01*
X129356000Y-82910000D01*
X129367000Y-82908000D01*
X129378000Y-82906000D01*
X129389000Y-82905000D01*
X129400000Y-82905000D01*
X129411000Y-82905000D01*
X129422000Y-82906000D01*
G36*
X129422000Y-82906000D02*
G01*
X129433000Y-82908000D01*
X129444000Y-82910000D01*
X129454000Y-82912000D01*
X129465000Y-82915000D01*
X129475000Y-82919000D01*
X129485000Y-82923000D01*
X129495000Y-82928000D01*
X129505000Y-82933000D01*
X129514000Y-82939000D01*
X129523000Y-82945000D01*
X129532000Y-82952000D01*
X129541000Y-82959000D01*
X129548000Y-82967000D01*
X129556000Y-82974000D01*
X129563000Y-82983000D01*
X129570000Y-82992000D01*
X129576000Y-83001000D01*
X129582000Y-83010000D01*
X129587000Y-83020000D01*
X129592000Y-83030000D01*
X129596000Y-83040000D01*
X129600000Y-83050000D01*
X129603000Y-83061000D01*
X129605000Y-83071000D01*
X129607000Y-83082000D01*
X129609000Y-83093000D01*
X129610000Y-83104000D01*
X129610000Y-83115000D01*
X129610000Y-83895000D01*
X129190000Y-83895000D01*
X129190000Y-83115000D01*
X129190000Y-83104000D01*
X129191000Y-83093000D01*
X129193000Y-83082000D01*
X129195000Y-83071000D01*
X129197000Y-83061000D01*
X129200000Y-83050000D01*
X129204000Y-83040000D01*
X129208000Y-83030000D01*
X129213000Y-83020000D01*
X129218000Y-83010000D01*
X129224000Y-83001000D01*
X129230000Y-82992000D01*
X129237000Y-82983000D01*
X129244000Y-82974000D01*
X129252000Y-82967000D01*
X129259000Y-82959000D01*
X129268000Y-82952000D01*
X129277000Y-82945000D01*
X129286000Y-82939000D01*
X129295000Y-82933000D01*
X129305000Y-82928000D01*
X129315000Y-82923000D01*
X129325000Y-82919000D01*
X129335000Y-82915000D01*
X129346000Y-82912000D01*
X129356000Y-82910000D01*
X129367000Y-82908000D01*
X129378000Y-82906000D01*
X129389000Y-82905000D01*
X129400000Y-82905000D01*
X129411000Y-82905000D01*
X129422000Y-82906000D01*
G37*
D11*
X176500000Y-57000000D03*
D12*
X129712500Y-87482500D03*
X131787500Y-87482500D03*
D13*
X141000000Y-56100000D03*
D14*
X118200000Y-89150000D03*
D15*
X118200000Y-87850000D03*
D16*
X117250000Y-106750000D03*
X117250000Y-108750000D03*
D17*
X111250000Y-104712500D03*
X111250000Y-106787500D03*
D16*
X136250000Y-95000000D03*
X136250000Y-97000000D03*
D17*
X130200000Y-92800000D03*
X130200000Y-94875000D03*
D18*
X126750000Y-78517500D03*
X124675000Y-78517500D03*
D13*
X141000000Y-61000000D03*
D19*
X129500000Y-85250000D03*
X131500000Y-85250000D03*
D20*
X140570000Y-86690000D03*
D21*
X140570000Y-84150000D03*
X140570000Y-81610000D03*
X140570000Y-79070000D03*
X140570000Y-76530000D03*
X140570000Y-73990000D03*
D22*
X122900000Y-95000000D03*
X124800000Y-95000000D03*
X123850000Y-92950000D03*
D13*
X115500000Y-84000000D03*
D23*
X119000000Y-99000000D03*
X119000000Y-97000000D03*
D24*
X123750000Y-108000000D03*
X121750000Y-108000000D03*
D11*
X115500000Y-56500000D03*
D18*
X127787500Y-87482500D03*
X125712500Y-87482500D03*
D25*
X156003334Y-110025000D03*
D26*
X159503334Y-110025000D03*
D12*
X128725000Y-107550000D03*
X130800000Y-107550000D03*
D27*
X115200000Y-62500000D03*
D28*
X115200000Y-64500000D03*
X115200000Y-66500000D03*
X115200000Y-68500000D03*
X115200000Y-70500000D03*
X115200000Y-72500000D03*
X115200000Y-74500000D03*
X115200000Y-76500000D03*
D29*
X144600000Y-62920000D03*
D30*
X144600000Y-65460000D03*
X144600000Y-68000000D03*
X144600000Y-70540000D03*
X144600000Y-73080000D03*
X144600000Y-75620000D03*
X144600000Y-78160000D03*
X144600000Y-80700000D03*
X144600000Y-83240000D03*
X144600000Y-85780000D03*
X144600000Y-88320000D03*
X144600000Y-90860000D03*
X144600000Y-93400000D03*
X144600000Y-95940000D03*
X144600000Y-98480000D03*
X170000000Y-98480000D03*
X170000000Y-95940000D03*
X170000000Y-93400000D03*
X170000000Y-90860000D03*
X170000000Y-88320000D03*
X170000000Y-85780000D03*
X170000000Y-83240000D03*
X170000000Y-80700000D03*
X170000000Y-78160000D03*
X170000000Y-75620000D03*
X170000000Y-73080000D03*
X170000000Y-70540000D03*
X170000000Y-68000000D03*
X170000000Y-65460000D03*
X170000000Y-62920000D03*
D16*
X132750000Y-74500000D03*
X132750000Y-76500000D03*
D14*
X127400000Y-94300000D03*
D15*
X127400000Y-93000000D03*
D31*
X113870000Y-100940000D03*
X113870000Y-102210000D03*
X113870000Y-103480000D03*
X113870000Y-104750000D03*
X118820000Y-104750000D03*
X118820000Y-103480000D03*
X118820000Y-102210000D03*
X118820000Y-100940000D03*
D32*
X116345000Y-102845000D03*
D13*
X132500000Y-113250000D03*
D12*
X128750000Y-76500000D03*
X130825000Y-76500000D03*
D11*
X99500000Y-111000000D03*
D25*
X146354168Y-110025000D03*
D26*
X149854168Y-110025000D03*
D33*
X126900000Y-103600000D03*
X128950000Y-103600000D03*
D25*
X136705000Y-110025000D03*
D26*
X140205000Y-110025000D03*
D24*
X136250000Y-83000000D03*
X134250000Y-83000000D03*
D20*
X97250000Y-88920000D03*
D21*
X97250000Y-91460000D03*
X97250000Y-94000000D03*
X97250000Y-96540000D03*
X97250000Y-99080000D03*
X97250000Y-101620000D03*
D18*
X127500000Y-85232500D03*
X125425000Y-85232500D03*
D12*
X134675000Y-103000000D03*
X136750000Y-103000000D03*
D19*
X134750000Y-76500000D03*
X136750000Y-76500000D03*
D25*
X165652500Y-110025000D03*
D26*
X169152500Y-110025000D03*
D34*
X127500000Y-74500000D03*
X127500000Y-72425000D03*
D12*
X128675000Y-78500000D03*
X130750000Y-78500000D03*
D16*
X115250000Y-106750000D03*
X115250000Y-108750000D03*
X110500000Y-99250000D03*
X110500000Y-101250000D03*
D18*
X126750000Y-76500000D03*
X124675000Y-76500000D03*
D19*
X121700000Y-103600000D03*
X123700000Y-103600000D03*
X132250000Y-97000000D03*
X134250000Y-97000000D03*
D11*
X176500000Y-111000000D03*
D13*
X108500000Y-113250000D03*
D19*
X121700000Y-99350000D03*
X123700000Y-99350000D03*
D34*
X129750000Y-74500000D03*
X129750000Y-72425000D03*
D12*
X131500000Y-80750000D03*
X133575000Y-80750000D03*
D35*
X113750000Y-94997400D03*
X113750000Y-98502600D03*
D34*
X125375000Y-74592500D03*
X125375000Y-72517500D03*
D36*
X123750000Y-113550000D03*
X123750000Y-111500000D03*
D19*
X132250000Y-94000000D03*
X134250000Y-94000000D03*
D37*
X127750000Y-109775000D03*
X128750000Y-109775000D03*
D38*
X126450000Y-113650000D03*
X130050000Y-113650000D03*
D12*
X132750000Y-78500000D03*
X134825000Y-78500000D03*
D33*
X126900000Y-99350000D03*
X128950000Y-99350000D03*
D39*
X123000000Y-83052500D03*
X123000000Y-80682500D03*
D17*
X120700000Y-87325000D03*
X120700000Y-89400000D03*
D40*
X135000000Y-101270000D03*
X135500000Y-101270000D03*
X136000000Y-101270000D03*
X136500000Y-101270000D03*
X136500000Y-99300000D03*
X136000000Y-99300000D03*
X135500000Y-99300000D03*
X135000000Y-99300000D03*
D41*
X135750000Y-100285000D03*
D42*
X120750000Y-112295000D03*
X112210000Y-112295000D03*
M02*
