%TF.GenerationSoftware,KiCad,Pcbnew,8.0.6*%
%TF.CreationDate,2025-06-09T20:20:09-07:00*%
%TF.ProjectId,ESP32_Clock_Gallery,45535033-325f-4436-9c6f-636b5f47616c,rev?*%
%TF.SameCoordinates,Original*%
%TF.FileFunction,Paste,Top*%
%TF.FilePolarity,Positive*%
%FSLAX46Y46*%
G04 Gerber Fmt 4.6, Leading zero omitted, Abs format (unit mm)*
G04 Created by KiCad (PCBNEW 8.0.6) date 2025-06-09 20:20:09*
%MOMM*%
%LPD*%
G01*
G04 APERTURE LIST*
G04 Aperture macros list*
%AMRoundRect*
0 Rectangle with rounded corners*
0 $1 Rounding radius*
0 $2 $3 $4 $5 $6 $7 $8 $9 X,Y pos of 4 corners*
0 Add a 4 corners polygon primitive as box body*
4,1,4,$2,$3,$4,$5,$6,$7,$8,$9,$2,$3,0*
0 Add four circle primitives for the rounded corners*
1,1,$1+$1,$2,$3*
1,1,$1+$1,$4,$5*
1,1,$1+$1,$6,$7*
1,1,$1+$1,$8,$9*
0 Add four rect primitives between the rounded corners*
20,1,$1+$1,$2,$3,$4,$5,0*
20,1,$1+$1,$4,$5,$6,$7,0*
20,1,$1+$1,$6,$7,$8,$9,0*
20,1,$1+$1,$8,$9,$2,$3,0*%
G04 Aperture macros list end*
%ADD10C,0.010000*%
%ADD11RoundRect,0.250000X-0.337500X-0.475000X0.337500X-0.475000X0.337500X0.475000X-0.337500X0.475000X0*%
%ADD12RoundRect,0.250000X-0.450000X0.350000X-0.450000X-0.350000X0.450000X-0.350000X0.450000X0.350000X0*%
%ADD13RoundRect,0.250000X-0.475000X0.337500X-0.475000X-0.337500X0.475000X-0.337500X0.475000X0.337500X0*%
%ADD14RoundRect,0.250000X0.337500X0.475000X-0.337500X0.475000X-0.337500X-0.475000X0.337500X-0.475000X0*%
%ADD15RoundRect,0.250000X-0.350000X-0.450000X0.350000X-0.450000X0.350000X0.450000X-0.350000X0.450000X0*%
%ADD16RoundRect,0.147500X0.147500X-0.502500X0.147500X0.502500X-0.147500X0.502500X-0.147500X-0.502500X0*%
%ADD17RoundRect,0.250000X0.450000X-0.350000X0.450000X0.350000X-0.450000X0.350000X-0.450000X-0.350000X0*%
%ADD18RoundRect,0.250000X0.350000X0.450000X-0.350000X0.450000X-0.350000X-0.450000X0.350000X-0.450000X0*%
%ADD19RoundRect,0.075000X-0.910000X-0.225000X0.910000X-0.225000X0.910000X0.225000X-0.910000X0.225000X0*%
%ADD20RoundRect,0.250000X-0.325000X-0.450000X0.325000X-0.450000X0.325000X0.450000X-0.325000X0.450000X0*%
%ADD21RoundRect,0.250000X0.475000X-0.337500X0.475000X0.337500X-0.475000X0.337500X-0.475000X-0.337500X0*%
%ADD22R,0.889000X1.473200*%
%ADD23RoundRect,0.250000X0.450000X-0.325000X0.450000X0.325000X-0.450000X0.325000X-0.450000X-0.325000X0*%
%ADD24R,0.600000X1.550000*%
%ADD25R,1.200000X1.800000*%
%ADD26R,3.400000X0.980000*%
%ADD27RoundRect,0.033750X0.101250X-0.346250X0.101250X0.346250X-0.101250X0.346250X-0.101250X-0.346250X0*%
G04 APERTURE END LIST*
D10*
X116990000Y-103665000D02*
X115700000Y-103665000D01*
X115700000Y-102025000D01*
X116990000Y-102025000D01*
X116990000Y-103665000D01*
G36*
X116990000Y-103665000D02*
G01*
X115700000Y-103665000D01*
X115700000Y-102025000D01*
X116990000Y-102025000D01*
X116990000Y-103665000D01*
G37*
X127240000Y-81440000D02*
X126640000Y-81440000D01*
X126640000Y-81210000D01*
X127240000Y-81210000D01*
X127240000Y-81440000D01*
G36*
X127240000Y-81440000D02*
G01*
X126640000Y-81440000D01*
X126640000Y-81210000D01*
X127240000Y-81210000D01*
X127240000Y-81440000D01*
G37*
X127240000Y-81840000D02*
X126640000Y-81840000D01*
X126640000Y-81610000D01*
X127240000Y-81610000D01*
X127240000Y-81840000D01*
G36*
X127240000Y-81840000D02*
G01*
X126640000Y-81840000D01*
X126640000Y-81610000D01*
X127240000Y-81610000D01*
X127240000Y-81840000D01*
G37*
X127240000Y-82240000D02*
X126640000Y-82240000D01*
X126640000Y-82010000D01*
X127240000Y-82010000D01*
X127240000Y-82240000D01*
G36*
X127240000Y-82240000D02*
G01*
X126640000Y-82240000D01*
X126640000Y-82010000D01*
X127240000Y-82010000D01*
X127240000Y-82240000D01*
G37*
X127240000Y-82640000D02*
X126640000Y-82640000D01*
X126640000Y-82410000D01*
X127240000Y-82410000D01*
X127240000Y-82640000D01*
G36*
X127240000Y-82640000D02*
G01*
X126640000Y-82640000D01*
X126640000Y-82410000D01*
X127240000Y-82410000D01*
X127240000Y-82640000D01*
G37*
X128290000Y-81815000D02*
X127390000Y-81815000D01*
X127390000Y-81165000D01*
X128290000Y-81165000D01*
X128290000Y-81815000D01*
G36*
X128290000Y-81815000D02*
G01*
X127390000Y-81815000D01*
X127390000Y-81165000D01*
X128290000Y-81165000D01*
X128290000Y-81815000D01*
G37*
X128290000Y-82685000D02*
X127390000Y-82685000D01*
X127390000Y-82035000D01*
X128290000Y-82035000D01*
X128290000Y-82685000D01*
G36*
X128290000Y-82685000D02*
G01*
X127390000Y-82685000D01*
X127390000Y-82035000D01*
X128290000Y-82035000D01*
X128290000Y-82685000D01*
G37*
X129410000Y-81815000D02*
X128510000Y-81815000D01*
X128510000Y-81165000D01*
X129410000Y-81165000D01*
X129410000Y-81815000D01*
G36*
X129410000Y-81815000D02*
G01*
X128510000Y-81815000D01*
X128510000Y-81165000D01*
X129410000Y-81165000D01*
X129410000Y-81815000D01*
G37*
X129410000Y-82685000D02*
X128510000Y-82685000D01*
X128510000Y-82035000D01*
X129410000Y-82035000D01*
X129410000Y-82685000D01*
G36*
X129410000Y-82685000D02*
G01*
X128510000Y-82685000D01*
X128510000Y-82035000D01*
X129410000Y-82035000D01*
X129410000Y-82685000D01*
G37*
X130160000Y-81440000D02*
X129560000Y-81440000D01*
X129560000Y-81210000D01*
X130160000Y-81210000D01*
X130160000Y-81440000D01*
G36*
X130160000Y-81440000D02*
G01*
X129560000Y-81440000D01*
X129560000Y-81210000D01*
X130160000Y-81210000D01*
X130160000Y-81440000D01*
G37*
X130160000Y-81840000D02*
X129560000Y-81840000D01*
X129560000Y-81610000D01*
X130160000Y-81610000D01*
X130160000Y-81840000D01*
G36*
X130160000Y-81840000D02*
G01*
X129560000Y-81840000D01*
X129560000Y-81610000D01*
X130160000Y-81610000D01*
X130160000Y-81840000D01*
G37*
X130160000Y-82240000D02*
X129560000Y-82240000D01*
X129560000Y-82010000D01*
X130160000Y-82010000D01*
X130160000Y-82240000D01*
G36*
X130160000Y-82240000D02*
G01*
X129560000Y-82240000D01*
X129560000Y-82010000D01*
X130160000Y-82010000D01*
X130160000Y-82240000D01*
G37*
X130160000Y-82640000D02*
X129560000Y-82640000D01*
X129560000Y-82410000D01*
X130160000Y-82410000D01*
X130160000Y-82640000D01*
G36*
X130160000Y-82640000D02*
G01*
X129560000Y-82640000D01*
X129560000Y-82410000D01*
X130160000Y-82410000D01*
X130160000Y-82640000D01*
G37*
X127515000Y-80710000D02*
X127515000Y-80716000D01*
X127516000Y-80722000D01*
X127515000Y-80729000D01*
X127515000Y-80736000D01*
X127514000Y-80743000D01*
X127513000Y-80749000D01*
X127511000Y-80756000D01*
X127509000Y-80762000D01*
X127507000Y-80768000D01*
X127505000Y-80775000D01*
X127502000Y-80781000D01*
X127498000Y-80787000D01*
X127495000Y-80792000D01*
X127491000Y-80798000D01*
X127487000Y-80803000D01*
X127483000Y-80808000D01*
X127478000Y-80813000D01*
X127473000Y-80818000D01*
X127468000Y-80822000D01*
X127463000Y-80826000D01*
X127457000Y-80830000D01*
X127452000Y-80833000D01*
X127446000Y-80837000D01*
X127440000Y-80840000D01*
X127433000Y-80842000D01*
X127427000Y-80844000D01*
X127421000Y-80846000D01*
X127414000Y-80848000D01*
X127408000Y-80849000D01*
X127400000Y-80850000D01*
X127392000Y-80849000D01*
X127386000Y-80848000D01*
X127379000Y-80846000D01*
X127373000Y-80844000D01*
X127367000Y-80842000D01*
X127360000Y-80840000D01*
X127354000Y-80837000D01*
X127348000Y-80833000D01*
X127343000Y-80830000D01*
X127337000Y-80826000D01*
X127332000Y-80822000D01*
X127327000Y-80818000D01*
X127322000Y-80813000D01*
X127317000Y-80808000D01*
X127313000Y-80803000D01*
X127309000Y-80798000D01*
X127305000Y-80792000D01*
X127302000Y-80787000D01*
X127298000Y-80781000D01*
X127295000Y-80775000D01*
X127293000Y-80768000D01*
X127291000Y-80762000D01*
X127289000Y-80756000D01*
X127287000Y-80749000D01*
X127286000Y-80743000D01*
X127285000Y-80736000D01*
X127285000Y-80729000D01*
X127284000Y-80722000D01*
X127285000Y-80716000D01*
X127285000Y-80710000D01*
X127285000Y-80050000D01*
X127515000Y-80050000D01*
X127515000Y-80710000D01*
G36*
X127515000Y-80710000D02*
G01*
X127515000Y-80716000D01*
X127516000Y-80722000D01*
X127515000Y-80729000D01*
X127515000Y-80736000D01*
X127514000Y-80743000D01*
X127513000Y-80749000D01*
X127511000Y-80756000D01*
X127509000Y-80762000D01*
X127507000Y-80768000D01*
X127505000Y-80775000D01*
X127502000Y-80781000D01*
X127498000Y-80787000D01*
X127495000Y-80792000D01*
X127491000Y-80798000D01*
X127487000Y-80803000D01*
X127483000Y-80808000D01*
X127478000Y-80813000D01*
X127473000Y-80818000D01*
X127468000Y-80822000D01*
X127463000Y-80826000D01*
X127457000Y-80830000D01*
X127452000Y-80833000D01*
X127446000Y-80837000D01*
X127440000Y-80840000D01*
X127433000Y-80842000D01*
X127427000Y-80844000D01*
X127421000Y-80846000D01*
X127414000Y-80848000D01*
X127408000Y-80849000D01*
X127400000Y-80850000D01*
X127392000Y-80849000D01*
X127386000Y-80848000D01*
X127379000Y-80846000D01*
X127373000Y-80844000D01*
X127367000Y-80842000D01*
X127360000Y-80840000D01*
X127354000Y-80837000D01*
X127348000Y-80833000D01*
X127343000Y-80830000D01*
X127337000Y-80826000D01*
X127332000Y-80822000D01*
X127327000Y-80818000D01*
X127322000Y-80813000D01*
X127317000Y-80808000D01*
X127313000Y-80803000D01*
X127309000Y-80798000D01*
X127305000Y-80792000D01*
X127302000Y-80787000D01*
X127298000Y-80781000D01*
X127295000Y-80775000D01*
X127293000Y-80768000D01*
X127291000Y-80762000D01*
X127289000Y-80756000D01*
X127287000Y-80749000D01*
X127286000Y-80743000D01*
X127285000Y-80736000D01*
X127285000Y-80729000D01*
X127284000Y-80722000D01*
X127285000Y-80716000D01*
X127285000Y-80710000D01*
X127285000Y-80050000D01*
X127515000Y-80050000D01*
X127515000Y-80710000D01*
G37*
X127408000Y-83001000D02*
X127414000Y-83002000D01*
X127421000Y-83004000D01*
X127427000Y-83006000D01*
X127433000Y-83008000D01*
X127440000Y-83010000D01*
X127446000Y-83013000D01*
X127452000Y-83017000D01*
X127457000Y-83020000D01*
X127463000Y-83024000D01*
X127468000Y-83028000D01*
X127473000Y-83032000D01*
X127478000Y-83037000D01*
X127483000Y-83042000D01*
X127487000Y-83047000D01*
X127491000Y-83052000D01*
X127495000Y-83058000D01*
X127498000Y-83063000D01*
X127502000Y-83069000D01*
X127505000Y-83075000D01*
X127507000Y-83082000D01*
X127509000Y-83088000D01*
X127511000Y-83094000D01*
X127513000Y-83101000D01*
X127514000Y-83107000D01*
X127515000Y-83114000D01*
X127515000Y-83121000D01*
X127516000Y-83128000D01*
X127515000Y-83134000D01*
X127515000Y-83140000D01*
X127515000Y-83800000D01*
X127285000Y-83800000D01*
X127285000Y-83140000D01*
X127285000Y-83134000D01*
X127284000Y-83128000D01*
X127285000Y-83121000D01*
X127285000Y-83114000D01*
X127286000Y-83107000D01*
X127287000Y-83101000D01*
X127289000Y-83094000D01*
X127291000Y-83088000D01*
X127293000Y-83082000D01*
X127295000Y-83075000D01*
X127298000Y-83069000D01*
X127302000Y-83063000D01*
X127305000Y-83058000D01*
X127309000Y-83052000D01*
X127313000Y-83047000D01*
X127317000Y-83042000D01*
X127322000Y-83037000D01*
X127327000Y-83032000D01*
X127332000Y-83028000D01*
X127337000Y-83024000D01*
X127343000Y-83020000D01*
X127348000Y-83017000D01*
X127354000Y-83013000D01*
X127360000Y-83010000D01*
X127367000Y-83008000D01*
X127373000Y-83006000D01*
X127379000Y-83004000D01*
X127386000Y-83002000D01*
X127392000Y-83001000D01*
X127400000Y-83000000D01*
X127408000Y-83001000D01*
G36*
X127408000Y-83001000D02*
G01*
X127414000Y-83002000D01*
X127421000Y-83004000D01*
X127427000Y-83006000D01*
X127433000Y-83008000D01*
X127440000Y-83010000D01*
X127446000Y-83013000D01*
X127452000Y-83017000D01*
X127457000Y-83020000D01*
X127463000Y-83024000D01*
X127468000Y-83028000D01*
X127473000Y-83032000D01*
X127478000Y-83037000D01*
X127483000Y-83042000D01*
X127487000Y-83047000D01*
X127491000Y-83052000D01*
X127495000Y-83058000D01*
X127498000Y-83063000D01*
X127502000Y-83069000D01*
X127505000Y-83075000D01*
X127507000Y-83082000D01*
X127509000Y-83088000D01*
X127511000Y-83094000D01*
X127513000Y-83101000D01*
X127514000Y-83107000D01*
X127515000Y-83114000D01*
X127515000Y-83121000D01*
X127516000Y-83128000D01*
X127515000Y-83134000D01*
X127515000Y-83140000D01*
X127515000Y-83800000D01*
X127285000Y-83800000D01*
X127285000Y-83140000D01*
X127285000Y-83134000D01*
X127284000Y-83128000D01*
X127285000Y-83121000D01*
X127285000Y-83114000D01*
X127286000Y-83107000D01*
X127287000Y-83101000D01*
X127289000Y-83094000D01*
X127291000Y-83088000D01*
X127293000Y-83082000D01*
X127295000Y-83075000D01*
X127298000Y-83069000D01*
X127302000Y-83063000D01*
X127305000Y-83058000D01*
X127309000Y-83052000D01*
X127313000Y-83047000D01*
X127317000Y-83042000D01*
X127322000Y-83037000D01*
X127327000Y-83032000D01*
X127332000Y-83028000D01*
X127337000Y-83024000D01*
X127343000Y-83020000D01*
X127348000Y-83017000D01*
X127354000Y-83013000D01*
X127360000Y-83010000D01*
X127367000Y-83008000D01*
X127373000Y-83006000D01*
X127379000Y-83004000D01*
X127386000Y-83002000D01*
X127392000Y-83001000D01*
X127400000Y-83000000D01*
X127408000Y-83001000D01*
G37*
X128015000Y-80710000D02*
X128015000Y-80716000D01*
X128016000Y-80722000D01*
X128015000Y-80729000D01*
X128015000Y-80736000D01*
X128014000Y-80743000D01*
X128013000Y-80749000D01*
X128011000Y-80756000D01*
X128009000Y-80762000D01*
X128007000Y-80768000D01*
X128005000Y-80775000D01*
X128002000Y-80781000D01*
X127998000Y-80787000D01*
X127995000Y-80792000D01*
X127991000Y-80798000D01*
X127987000Y-80803000D01*
X127983000Y-80808000D01*
X127978000Y-80813000D01*
X127973000Y-80818000D01*
X127968000Y-80822000D01*
X127963000Y-80826000D01*
X127957000Y-80830000D01*
X127952000Y-80833000D01*
X127946000Y-80837000D01*
X127940000Y-80840000D01*
X127933000Y-80842000D01*
X127927000Y-80844000D01*
X127921000Y-80846000D01*
X127914000Y-80848000D01*
X127908000Y-80849000D01*
X127900000Y-80850000D01*
X127892000Y-80849000D01*
X127886000Y-80848000D01*
X127879000Y-80846000D01*
X127873000Y-80844000D01*
X127867000Y-80842000D01*
X127860000Y-80840000D01*
X127854000Y-80837000D01*
X127848000Y-80833000D01*
X127843000Y-80830000D01*
X127837000Y-80826000D01*
X127832000Y-80822000D01*
X127827000Y-80818000D01*
X127822000Y-80813000D01*
X127817000Y-80808000D01*
X127813000Y-80803000D01*
X127809000Y-80798000D01*
X127805000Y-80792000D01*
X127802000Y-80787000D01*
X127798000Y-80781000D01*
X127795000Y-80775000D01*
X127793000Y-80768000D01*
X127791000Y-80762000D01*
X127789000Y-80756000D01*
X127787000Y-80749000D01*
X127786000Y-80743000D01*
X127785000Y-80736000D01*
X127785000Y-80729000D01*
X127784000Y-80722000D01*
X127785000Y-80716000D01*
X127785000Y-80710000D01*
X127785000Y-80050000D01*
X128015000Y-80050000D01*
X128015000Y-80710000D01*
G36*
X128015000Y-80710000D02*
G01*
X128015000Y-80716000D01*
X128016000Y-80722000D01*
X128015000Y-80729000D01*
X128015000Y-80736000D01*
X128014000Y-80743000D01*
X128013000Y-80749000D01*
X128011000Y-80756000D01*
X128009000Y-80762000D01*
X128007000Y-80768000D01*
X128005000Y-80775000D01*
X128002000Y-80781000D01*
X127998000Y-80787000D01*
X127995000Y-80792000D01*
X127991000Y-80798000D01*
X127987000Y-80803000D01*
X127983000Y-80808000D01*
X127978000Y-80813000D01*
X127973000Y-80818000D01*
X127968000Y-80822000D01*
X127963000Y-80826000D01*
X127957000Y-80830000D01*
X127952000Y-80833000D01*
X127946000Y-80837000D01*
X127940000Y-80840000D01*
X127933000Y-80842000D01*
X127927000Y-80844000D01*
X127921000Y-80846000D01*
X127914000Y-80848000D01*
X127908000Y-80849000D01*
X127900000Y-80850000D01*
X127892000Y-80849000D01*
X127886000Y-80848000D01*
X127879000Y-80846000D01*
X127873000Y-80844000D01*
X127867000Y-80842000D01*
X127860000Y-80840000D01*
X127854000Y-80837000D01*
X127848000Y-80833000D01*
X127843000Y-80830000D01*
X127837000Y-80826000D01*
X127832000Y-80822000D01*
X127827000Y-80818000D01*
X127822000Y-80813000D01*
X127817000Y-80808000D01*
X127813000Y-80803000D01*
X127809000Y-80798000D01*
X127805000Y-80792000D01*
X127802000Y-80787000D01*
X127798000Y-80781000D01*
X127795000Y-80775000D01*
X127793000Y-80768000D01*
X127791000Y-80762000D01*
X127789000Y-80756000D01*
X127787000Y-80749000D01*
X127786000Y-80743000D01*
X127785000Y-80736000D01*
X127785000Y-80729000D01*
X127784000Y-80722000D01*
X127785000Y-80716000D01*
X127785000Y-80710000D01*
X127785000Y-80050000D01*
X128015000Y-80050000D01*
X128015000Y-80710000D01*
G37*
X127908000Y-83001000D02*
X127914000Y-83002000D01*
X127921000Y-83004000D01*
X127927000Y-83006000D01*
X127933000Y-83008000D01*
X127940000Y-83010000D01*
X127946000Y-83013000D01*
X127952000Y-83017000D01*
X127957000Y-83020000D01*
X127963000Y-83024000D01*
X127968000Y-83028000D01*
X127973000Y-83032000D01*
X127978000Y-83037000D01*
X127983000Y-83042000D01*
X127987000Y-83047000D01*
X127991000Y-83052000D01*
X127995000Y-83058000D01*
X127998000Y-83063000D01*
X128002000Y-83069000D01*
X128005000Y-83075000D01*
X128007000Y-83082000D01*
X128009000Y-83088000D01*
X128011000Y-83094000D01*
X128013000Y-83101000D01*
X128014000Y-83107000D01*
X128015000Y-83114000D01*
X128015000Y-83121000D01*
X128016000Y-83128000D01*
X128015000Y-83134000D01*
X128015000Y-83140000D01*
X128015000Y-83800000D01*
X127785000Y-83800000D01*
X127785000Y-83140000D01*
X127785000Y-83134000D01*
X127784000Y-83128000D01*
X127785000Y-83121000D01*
X127785000Y-83114000D01*
X127786000Y-83107000D01*
X127787000Y-83101000D01*
X127789000Y-83094000D01*
X127791000Y-83088000D01*
X127793000Y-83082000D01*
X127795000Y-83075000D01*
X127798000Y-83069000D01*
X127802000Y-83063000D01*
X127805000Y-83058000D01*
X127809000Y-83052000D01*
X127813000Y-83047000D01*
X127817000Y-83042000D01*
X127822000Y-83037000D01*
X127827000Y-83032000D01*
X127832000Y-83028000D01*
X127837000Y-83024000D01*
X127843000Y-83020000D01*
X127848000Y-83017000D01*
X127854000Y-83013000D01*
X127860000Y-83010000D01*
X127867000Y-83008000D01*
X127873000Y-83006000D01*
X127879000Y-83004000D01*
X127886000Y-83002000D01*
X127892000Y-83001000D01*
X127900000Y-83000000D01*
X127908000Y-83001000D01*
G36*
X127908000Y-83001000D02*
G01*
X127914000Y-83002000D01*
X127921000Y-83004000D01*
X127927000Y-83006000D01*
X127933000Y-83008000D01*
X127940000Y-83010000D01*
X127946000Y-83013000D01*
X127952000Y-83017000D01*
X127957000Y-83020000D01*
X127963000Y-83024000D01*
X127968000Y-83028000D01*
X127973000Y-83032000D01*
X127978000Y-83037000D01*
X127983000Y-83042000D01*
X127987000Y-83047000D01*
X127991000Y-83052000D01*
X127995000Y-83058000D01*
X127998000Y-83063000D01*
X128002000Y-83069000D01*
X128005000Y-83075000D01*
X128007000Y-83082000D01*
X128009000Y-83088000D01*
X128011000Y-83094000D01*
X128013000Y-83101000D01*
X128014000Y-83107000D01*
X128015000Y-83114000D01*
X128015000Y-83121000D01*
X128016000Y-83128000D01*
X128015000Y-83134000D01*
X128015000Y-83140000D01*
X128015000Y-83800000D01*
X127785000Y-83800000D01*
X127785000Y-83140000D01*
X127785000Y-83134000D01*
X127784000Y-83128000D01*
X127785000Y-83121000D01*
X127785000Y-83114000D01*
X127786000Y-83107000D01*
X127787000Y-83101000D01*
X127789000Y-83094000D01*
X127791000Y-83088000D01*
X127793000Y-83082000D01*
X127795000Y-83075000D01*
X127798000Y-83069000D01*
X127802000Y-83063000D01*
X127805000Y-83058000D01*
X127809000Y-83052000D01*
X127813000Y-83047000D01*
X127817000Y-83042000D01*
X127822000Y-83037000D01*
X127827000Y-83032000D01*
X127832000Y-83028000D01*
X127837000Y-83024000D01*
X127843000Y-83020000D01*
X127848000Y-83017000D01*
X127854000Y-83013000D01*
X127860000Y-83010000D01*
X127867000Y-83008000D01*
X127873000Y-83006000D01*
X127879000Y-83004000D01*
X127886000Y-83002000D01*
X127892000Y-83001000D01*
X127900000Y-83000000D01*
X127908000Y-83001000D01*
G37*
X128515000Y-80710000D02*
X128515000Y-80716000D01*
X128516000Y-80722000D01*
X128515000Y-80729000D01*
X128515000Y-80736000D01*
X128514000Y-80743000D01*
X128513000Y-80749000D01*
X128511000Y-80756000D01*
X128509000Y-80762000D01*
X128507000Y-80768000D01*
X128505000Y-80775000D01*
X128502000Y-80781000D01*
X128498000Y-80787000D01*
X128495000Y-80792000D01*
X128491000Y-80798000D01*
X128487000Y-80803000D01*
X128483000Y-80808000D01*
X128478000Y-80813000D01*
X128473000Y-80818000D01*
X128468000Y-80822000D01*
X128463000Y-80826000D01*
X128457000Y-80830000D01*
X128452000Y-80833000D01*
X128446000Y-80837000D01*
X128440000Y-80840000D01*
X128433000Y-80842000D01*
X128427000Y-80844000D01*
X128421000Y-80846000D01*
X128414000Y-80848000D01*
X128408000Y-80849000D01*
X128400000Y-80850000D01*
X128392000Y-80849000D01*
X128386000Y-80848000D01*
X128379000Y-80846000D01*
X128373000Y-80844000D01*
X128367000Y-80842000D01*
X128360000Y-80840000D01*
X128354000Y-80837000D01*
X128348000Y-80833000D01*
X128343000Y-80830000D01*
X128337000Y-80826000D01*
X128332000Y-80822000D01*
X128327000Y-80818000D01*
X128322000Y-80813000D01*
X128317000Y-80808000D01*
X128313000Y-80803000D01*
X128309000Y-80798000D01*
X128305000Y-80792000D01*
X128302000Y-80787000D01*
X128298000Y-80781000D01*
X128295000Y-80775000D01*
X128293000Y-80768000D01*
X128291000Y-80762000D01*
X128289000Y-80756000D01*
X128287000Y-80749000D01*
X128286000Y-80743000D01*
X128285000Y-80736000D01*
X128285000Y-80729000D01*
X128284000Y-80722000D01*
X128285000Y-80716000D01*
X128285000Y-80710000D01*
X128285000Y-80050000D01*
X128515000Y-80050000D01*
X128515000Y-80710000D01*
G36*
X128515000Y-80710000D02*
G01*
X128515000Y-80716000D01*
X128516000Y-80722000D01*
X128515000Y-80729000D01*
X128515000Y-80736000D01*
X128514000Y-80743000D01*
X128513000Y-80749000D01*
X128511000Y-80756000D01*
X128509000Y-80762000D01*
X128507000Y-80768000D01*
X128505000Y-80775000D01*
X128502000Y-80781000D01*
X128498000Y-80787000D01*
X128495000Y-80792000D01*
X128491000Y-80798000D01*
X128487000Y-80803000D01*
X128483000Y-80808000D01*
X128478000Y-80813000D01*
X128473000Y-80818000D01*
X128468000Y-80822000D01*
X128463000Y-80826000D01*
X128457000Y-80830000D01*
X128452000Y-80833000D01*
X128446000Y-80837000D01*
X128440000Y-80840000D01*
X128433000Y-80842000D01*
X128427000Y-80844000D01*
X128421000Y-80846000D01*
X128414000Y-80848000D01*
X128408000Y-80849000D01*
X128400000Y-80850000D01*
X128392000Y-80849000D01*
X128386000Y-80848000D01*
X128379000Y-80846000D01*
X128373000Y-80844000D01*
X128367000Y-80842000D01*
X128360000Y-80840000D01*
X128354000Y-80837000D01*
X128348000Y-80833000D01*
X128343000Y-80830000D01*
X128337000Y-80826000D01*
X128332000Y-80822000D01*
X128327000Y-80818000D01*
X128322000Y-80813000D01*
X128317000Y-80808000D01*
X128313000Y-80803000D01*
X128309000Y-80798000D01*
X128305000Y-80792000D01*
X128302000Y-80787000D01*
X128298000Y-80781000D01*
X128295000Y-80775000D01*
X128293000Y-80768000D01*
X128291000Y-80762000D01*
X128289000Y-80756000D01*
X128287000Y-80749000D01*
X128286000Y-80743000D01*
X128285000Y-80736000D01*
X128285000Y-80729000D01*
X128284000Y-80722000D01*
X128285000Y-80716000D01*
X128285000Y-80710000D01*
X128285000Y-80050000D01*
X128515000Y-80050000D01*
X128515000Y-80710000D01*
G37*
X128408000Y-83001000D02*
X128414000Y-83002000D01*
X128421000Y-83004000D01*
X128427000Y-83006000D01*
X128433000Y-83008000D01*
X128440000Y-83010000D01*
X128446000Y-83013000D01*
X128452000Y-83017000D01*
X128457000Y-83020000D01*
X128463000Y-83024000D01*
X128468000Y-83028000D01*
X128473000Y-83032000D01*
X128478000Y-83037000D01*
X128483000Y-83042000D01*
X128487000Y-83047000D01*
X128491000Y-83052000D01*
X128495000Y-83058000D01*
X128498000Y-83063000D01*
X128502000Y-83069000D01*
X128505000Y-83075000D01*
X128507000Y-83082000D01*
X128509000Y-83088000D01*
X128511000Y-83094000D01*
X128513000Y-83101000D01*
X128514000Y-83107000D01*
X128515000Y-83114000D01*
X128515000Y-83121000D01*
X128516000Y-83128000D01*
X128515000Y-83134000D01*
X128515000Y-83140000D01*
X128515000Y-83800000D01*
X128285000Y-83800000D01*
X128285000Y-83140000D01*
X128285000Y-83134000D01*
X128284000Y-83128000D01*
X128285000Y-83121000D01*
X128285000Y-83114000D01*
X128286000Y-83107000D01*
X128287000Y-83101000D01*
X128289000Y-83094000D01*
X128291000Y-83088000D01*
X128293000Y-83082000D01*
X128295000Y-83075000D01*
X128298000Y-83069000D01*
X128302000Y-83063000D01*
X128305000Y-83058000D01*
X128309000Y-83052000D01*
X128313000Y-83047000D01*
X128317000Y-83042000D01*
X128322000Y-83037000D01*
X128327000Y-83032000D01*
X128332000Y-83028000D01*
X128337000Y-83024000D01*
X128343000Y-83020000D01*
X128348000Y-83017000D01*
X128354000Y-83013000D01*
X128360000Y-83010000D01*
X128367000Y-83008000D01*
X128373000Y-83006000D01*
X128379000Y-83004000D01*
X128386000Y-83002000D01*
X128392000Y-83001000D01*
X128400000Y-83000000D01*
X128408000Y-83001000D01*
G36*
X128408000Y-83001000D02*
G01*
X128414000Y-83002000D01*
X128421000Y-83004000D01*
X128427000Y-83006000D01*
X128433000Y-83008000D01*
X128440000Y-83010000D01*
X128446000Y-83013000D01*
X128452000Y-83017000D01*
X128457000Y-83020000D01*
X128463000Y-83024000D01*
X128468000Y-83028000D01*
X128473000Y-83032000D01*
X128478000Y-83037000D01*
X128483000Y-83042000D01*
X128487000Y-83047000D01*
X128491000Y-83052000D01*
X128495000Y-83058000D01*
X128498000Y-83063000D01*
X128502000Y-83069000D01*
X128505000Y-83075000D01*
X128507000Y-83082000D01*
X128509000Y-83088000D01*
X128511000Y-83094000D01*
X128513000Y-83101000D01*
X128514000Y-83107000D01*
X128515000Y-83114000D01*
X128515000Y-83121000D01*
X128516000Y-83128000D01*
X128515000Y-83134000D01*
X128515000Y-83140000D01*
X128515000Y-83800000D01*
X128285000Y-83800000D01*
X128285000Y-83140000D01*
X128285000Y-83134000D01*
X128284000Y-83128000D01*
X128285000Y-83121000D01*
X128285000Y-83114000D01*
X128286000Y-83107000D01*
X128287000Y-83101000D01*
X128289000Y-83094000D01*
X128291000Y-83088000D01*
X128293000Y-83082000D01*
X128295000Y-83075000D01*
X128298000Y-83069000D01*
X128302000Y-83063000D01*
X128305000Y-83058000D01*
X128309000Y-83052000D01*
X128313000Y-83047000D01*
X128317000Y-83042000D01*
X128322000Y-83037000D01*
X128327000Y-83032000D01*
X128332000Y-83028000D01*
X128337000Y-83024000D01*
X128343000Y-83020000D01*
X128348000Y-83017000D01*
X128354000Y-83013000D01*
X128360000Y-83010000D01*
X128367000Y-83008000D01*
X128373000Y-83006000D01*
X128379000Y-83004000D01*
X128386000Y-83002000D01*
X128392000Y-83001000D01*
X128400000Y-83000000D01*
X128408000Y-83001000D01*
G37*
X129015000Y-80710000D02*
X129015000Y-80716000D01*
X129016000Y-80722000D01*
X129015000Y-80729000D01*
X129015000Y-80736000D01*
X129014000Y-80743000D01*
X129013000Y-80749000D01*
X129011000Y-80756000D01*
X129009000Y-80762000D01*
X129007000Y-80768000D01*
X129005000Y-80775000D01*
X129002000Y-80781000D01*
X128998000Y-80787000D01*
X128995000Y-80792000D01*
X128991000Y-80798000D01*
X128987000Y-80803000D01*
X128983000Y-80808000D01*
X128978000Y-80813000D01*
X128973000Y-80818000D01*
X128968000Y-80822000D01*
X128963000Y-80826000D01*
X128957000Y-80830000D01*
X128952000Y-80833000D01*
X128946000Y-80837000D01*
X128940000Y-80840000D01*
X128933000Y-80842000D01*
X128927000Y-80844000D01*
X128921000Y-80846000D01*
X128914000Y-80848000D01*
X128908000Y-80849000D01*
X128900000Y-80850000D01*
X128892000Y-80849000D01*
X128886000Y-80848000D01*
X128879000Y-80846000D01*
X128873000Y-80844000D01*
X128867000Y-80842000D01*
X128860000Y-80840000D01*
X128854000Y-80837000D01*
X128848000Y-80833000D01*
X128843000Y-80830000D01*
X128837000Y-80826000D01*
X128832000Y-80822000D01*
X128827000Y-80818000D01*
X128822000Y-80813000D01*
X128817000Y-80808000D01*
X128813000Y-80803000D01*
X128809000Y-80798000D01*
X128805000Y-80792000D01*
X128802000Y-80787000D01*
X128798000Y-80781000D01*
X128795000Y-80775000D01*
X128793000Y-80768000D01*
X128791000Y-80762000D01*
X128789000Y-80756000D01*
X128787000Y-80749000D01*
X128786000Y-80743000D01*
X128785000Y-80736000D01*
X128785000Y-80729000D01*
X128784000Y-80722000D01*
X128785000Y-80716000D01*
X128785000Y-80710000D01*
X128785000Y-80050000D01*
X129015000Y-80050000D01*
X129015000Y-80710000D01*
G36*
X129015000Y-80710000D02*
G01*
X129015000Y-80716000D01*
X129016000Y-80722000D01*
X129015000Y-80729000D01*
X129015000Y-80736000D01*
X129014000Y-80743000D01*
X129013000Y-80749000D01*
X129011000Y-80756000D01*
X129009000Y-80762000D01*
X129007000Y-80768000D01*
X129005000Y-80775000D01*
X129002000Y-80781000D01*
X128998000Y-80787000D01*
X128995000Y-80792000D01*
X128991000Y-80798000D01*
X128987000Y-80803000D01*
X128983000Y-80808000D01*
X128978000Y-80813000D01*
X128973000Y-80818000D01*
X128968000Y-80822000D01*
X128963000Y-80826000D01*
X128957000Y-80830000D01*
X128952000Y-80833000D01*
X128946000Y-80837000D01*
X128940000Y-80840000D01*
X128933000Y-80842000D01*
X128927000Y-80844000D01*
X128921000Y-80846000D01*
X128914000Y-80848000D01*
X128908000Y-80849000D01*
X128900000Y-80850000D01*
X128892000Y-80849000D01*
X128886000Y-80848000D01*
X128879000Y-80846000D01*
X128873000Y-80844000D01*
X128867000Y-80842000D01*
X128860000Y-80840000D01*
X128854000Y-80837000D01*
X128848000Y-80833000D01*
X128843000Y-80830000D01*
X128837000Y-80826000D01*
X128832000Y-80822000D01*
X128827000Y-80818000D01*
X128822000Y-80813000D01*
X128817000Y-80808000D01*
X128813000Y-80803000D01*
X128809000Y-80798000D01*
X128805000Y-80792000D01*
X128802000Y-80787000D01*
X128798000Y-80781000D01*
X128795000Y-80775000D01*
X128793000Y-80768000D01*
X128791000Y-80762000D01*
X128789000Y-80756000D01*
X128787000Y-80749000D01*
X128786000Y-80743000D01*
X128785000Y-80736000D01*
X128785000Y-80729000D01*
X128784000Y-80722000D01*
X128785000Y-80716000D01*
X128785000Y-80710000D01*
X128785000Y-80050000D01*
X129015000Y-80050000D01*
X129015000Y-80710000D01*
G37*
X128908000Y-83001000D02*
X128914000Y-83002000D01*
X128921000Y-83004000D01*
X128927000Y-83006000D01*
X128933000Y-83008000D01*
X128940000Y-83010000D01*
X128946000Y-83013000D01*
X128952000Y-83017000D01*
X128957000Y-83020000D01*
X128963000Y-83024000D01*
X128968000Y-83028000D01*
X128973000Y-83032000D01*
X128978000Y-83037000D01*
X128983000Y-83042000D01*
X128987000Y-83047000D01*
X128991000Y-83052000D01*
X128995000Y-83058000D01*
X128998000Y-83063000D01*
X129002000Y-83069000D01*
X129005000Y-83075000D01*
X129007000Y-83082000D01*
X129009000Y-83088000D01*
X129011000Y-83094000D01*
X129013000Y-83101000D01*
X129014000Y-83107000D01*
X129015000Y-83114000D01*
X129015000Y-83121000D01*
X129016000Y-83128000D01*
X129015000Y-83134000D01*
X129015000Y-83140000D01*
X129015000Y-83800000D01*
X128785000Y-83800000D01*
X128785000Y-83140000D01*
X128785000Y-83134000D01*
X128784000Y-83128000D01*
X128785000Y-83121000D01*
X128785000Y-83114000D01*
X128786000Y-83107000D01*
X128787000Y-83101000D01*
X128789000Y-83094000D01*
X128791000Y-83088000D01*
X128793000Y-83082000D01*
X128795000Y-83075000D01*
X128798000Y-83069000D01*
X128802000Y-83063000D01*
X128805000Y-83058000D01*
X128809000Y-83052000D01*
X128813000Y-83047000D01*
X128817000Y-83042000D01*
X128822000Y-83037000D01*
X128827000Y-83032000D01*
X128832000Y-83028000D01*
X128837000Y-83024000D01*
X128843000Y-83020000D01*
X128848000Y-83017000D01*
X128854000Y-83013000D01*
X128860000Y-83010000D01*
X128867000Y-83008000D01*
X128873000Y-83006000D01*
X128879000Y-83004000D01*
X128886000Y-83002000D01*
X128892000Y-83001000D01*
X128900000Y-83000000D01*
X128908000Y-83001000D01*
G36*
X128908000Y-83001000D02*
G01*
X128914000Y-83002000D01*
X128921000Y-83004000D01*
X128927000Y-83006000D01*
X128933000Y-83008000D01*
X128940000Y-83010000D01*
X128946000Y-83013000D01*
X128952000Y-83017000D01*
X128957000Y-83020000D01*
X128963000Y-83024000D01*
X128968000Y-83028000D01*
X128973000Y-83032000D01*
X128978000Y-83037000D01*
X128983000Y-83042000D01*
X128987000Y-83047000D01*
X128991000Y-83052000D01*
X128995000Y-83058000D01*
X128998000Y-83063000D01*
X129002000Y-83069000D01*
X129005000Y-83075000D01*
X129007000Y-83082000D01*
X129009000Y-83088000D01*
X129011000Y-83094000D01*
X129013000Y-83101000D01*
X129014000Y-83107000D01*
X129015000Y-83114000D01*
X129015000Y-83121000D01*
X129016000Y-83128000D01*
X129015000Y-83134000D01*
X129015000Y-83140000D01*
X129015000Y-83800000D01*
X128785000Y-83800000D01*
X128785000Y-83140000D01*
X128785000Y-83134000D01*
X128784000Y-83128000D01*
X128785000Y-83121000D01*
X128785000Y-83114000D01*
X128786000Y-83107000D01*
X128787000Y-83101000D01*
X128789000Y-83094000D01*
X128791000Y-83088000D01*
X128793000Y-83082000D01*
X128795000Y-83075000D01*
X128798000Y-83069000D01*
X128802000Y-83063000D01*
X128805000Y-83058000D01*
X128809000Y-83052000D01*
X128813000Y-83047000D01*
X128817000Y-83042000D01*
X128822000Y-83037000D01*
X128827000Y-83032000D01*
X128832000Y-83028000D01*
X128837000Y-83024000D01*
X128843000Y-83020000D01*
X128848000Y-83017000D01*
X128854000Y-83013000D01*
X128860000Y-83010000D01*
X128867000Y-83008000D01*
X128873000Y-83006000D01*
X128879000Y-83004000D01*
X128886000Y-83002000D01*
X128892000Y-83001000D01*
X128900000Y-83000000D01*
X128908000Y-83001000D01*
G37*
X129515000Y-80710000D02*
X129515000Y-80716000D01*
X129516000Y-80722000D01*
X129515000Y-80729000D01*
X129515000Y-80736000D01*
X129514000Y-80743000D01*
X129513000Y-80749000D01*
X129511000Y-80756000D01*
X129509000Y-80762000D01*
X129507000Y-80768000D01*
X129505000Y-80775000D01*
X129502000Y-80781000D01*
X129498000Y-80787000D01*
X129495000Y-80792000D01*
X129491000Y-80798000D01*
X129487000Y-80803000D01*
X129483000Y-80808000D01*
X129478000Y-80813000D01*
X129473000Y-80818000D01*
X129468000Y-80822000D01*
X129463000Y-80826000D01*
X129457000Y-80830000D01*
X129452000Y-80833000D01*
X129446000Y-80837000D01*
X129440000Y-80840000D01*
X129433000Y-80842000D01*
X129427000Y-80844000D01*
X129421000Y-80846000D01*
X129414000Y-80848000D01*
X129408000Y-80849000D01*
X129400000Y-80850000D01*
X129392000Y-80849000D01*
X129386000Y-80848000D01*
X129379000Y-80846000D01*
X129373000Y-80844000D01*
X129367000Y-80842000D01*
X129360000Y-80840000D01*
X129354000Y-80837000D01*
X129348000Y-80833000D01*
X129343000Y-80830000D01*
X129337000Y-80826000D01*
X129332000Y-80822000D01*
X129327000Y-80818000D01*
X129322000Y-80813000D01*
X129317000Y-80808000D01*
X129313000Y-80803000D01*
X129309000Y-80798000D01*
X129305000Y-80792000D01*
X129302000Y-80787000D01*
X129298000Y-80781000D01*
X129295000Y-80775000D01*
X129293000Y-80768000D01*
X129291000Y-80762000D01*
X129289000Y-80756000D01*
X129287000Y-80749000D01*
X129286000Y-80743000D01*
X129285000Y-80736000D01*
X129285000Y-80729000D01*
X129284000Y-80722000D01*
X129285000Y-80716000D01*
X129285000Y-80710000D01*
X129285000Y-80050000D01*
X129515000Y-80050000D01*
X129515000Y-80710000D01*
G36*
X129515000Y-80710000D02*
G01*
X129515000Y-80716000D01*
X129516000Y-80722000D01*
X129515000Y-80729000D01*
X129515000Y-80736000D01*
X129514000Y-80743000D01*
X129513000Y-80749000D01*
X129511000Y-80756000D01*
X129509000Y-80762000D01*
X129507000Y-80768000D01*
X129505000Y-80775000D01*
X129502000Y-80781000D01*
X129498000Y-80787000D01*
X129495000Y-80792000D01*
X129491000Y-80798000D01*
X129487000Y-80803000D01*
X129483000Y-80808000D01*
X129478000Y-80813000D01*
X129473000Y-80818000D01*
X129468000Y-80822000D01*
X129463000Y-80826000D01*
X129457000Y-80830000D01*
X129452000Y-80833000D01*
X129446000Y-80837000D01*
X129440000Y-80840000D01*
X129433000Y-80842000D01*
X129427000Y-80844000D01*
X129421000Y-80846000D01*
X129414000Y-80848000D01*
X129408000Y-80849000D01*
X129400000Y-80850000D01*
X129392000Y-80849000D01*
X129386000Y-80848000D01*
X129379000Y-80846000D01*
X129373000Y-80844000D01*
X129367000Y-80842000D01*
X129360000Y-80840000D01*
X129354000Y-80837000D01*
X129348000Y-80833000D01*
X129343000Y-80830000D01*
X129337000Y-80826000D01*
X129332000Y-80822000D01*
X129327000Y-80818000D01*
X129322000Y-80813000D01*
X129317000Y-80808000D01*
X129313000Y-80803000D01*
X129309000Y-80798000D01*
X129305000Y-80792000D01*
X129302000Y-80787000D01*
X129298000Y-80781000D01*
X129295000Y-80775000D01*
X129293000Y-80768000D01*
X129291000Y-80762000D01*
X129289000Y-80756000D01*
X129287000Y-80749000D01*
X129286000Y-80743000D01*
X129285000Y-80736000D01*
X129285000Y-80729000D01*
X129284000Y-80722000D01*
X129285000Y-80716000D01*
X129285000Y-80710000D01*
X129285000Y-80050000D01*
X129515000Y-80050000D01*
X129515000Y-80710000D01*
G37*
X129408000Y-83001000D02*
X129414000Y-83002000D01*
X129421000Y-83004000D01*
X129427000Y-83006000D01*
X129433000Y-83008000D01*
X129440000Y-83010000D01*
X129446000Y-83013000D01*
X129452000Y-83017000D01*
X129457000Y-83020000D01*
X129463000Y-83024000D01*
X129468000Y-83028000D01*
X129473000Y-83032000D01*
X129478000Y-83037000D01*
X129483000Y-83042000D01*
X129487000Y-83047000D01*
X129491000Y-83052000D01*
X129495000Y-83058000D01*
X129498000Y-83063000D01*
X129502000Y-83069000D01*
X129505000Y-83075000D01*
X129507000Y-83082000D01*
X129509000Y-83088000D01*
X129511000Y-83094000D01*
X129513000Y-83101000D01*
X129514000Y-83107000D01*
X129515000Y-83114000D01*
X129515000Y-83121000D01*
X129516000Y-83128000D01*
X129515000Y-83134000D01*
X129515000Y-83140000D01*
X129515000Y-83800000D01*
X129285000Y-83800000D01*
X129285000Y-83140000D01*
X129285000Y-83134000D01*
X129284000Y-83128000D01*
X129285000Y-83121000D01*
X129285000Y-83114000D01*
X129286000Y-83107000D01*
X129287000Y-83101000D01*
X129289000Y-83094000D01*
X129291000Y-83088000D01*
X129293000Y-83082000D01*
X129295000Y-83075000D01*
X129298000Y-83069000D01*
X129302000Y-83063000D01*
X129305000Y-83058000D01*
X129309000Y-83052000D01*
X129313000Y-83047000D01*
X129317000Y-83042000D01*
X129322000Y-83037000D01*
X129327000Y-83032000D01*
X129332000Y-83028000D01*
X129337000Y-83024000D01*
X129343000Y-83020000D01*
X129348000Y-83017000D01*
X129354000Y-83013000D01*
X129360000Y-83010000D01*
X129367000Y-83008000D01*
X129373000Y-83006000D01*
X129379000Y-83004000D01*
X129386000Y-83002000D01*
X129392000Y-83001000D01*
X129400000Y-83000000D01*
X129408000Y-83001000D01*
G36*
X129408000Y-83001000D02*
G01*
X129414000Y-83002000D01*
X129421000Y-83004000D01*
X129427000Y-83006000D01*
X129433000Y-83008000D01*
X129440000Y-83010000D01*
X129446000Y-83013000D01*
X129452000Y-83017000D01*
X129457000Y-83020000D01*
X129463000Y-83024000D01*
X129468000Y-83028000D01*
X129473000Y-83032000D01*
X129478000Y-83037000D01*
X129483000Y-83042000D01*
X129487000Y-83047000D01*
X129491000Y-83052000D01*
X129495000Y-83058000D01*
X129498000Y-83063000D01*
X129502000Y-83069000D01*
X129505000Y-83075000D01*
X129507000Y-83082000D01*
X129509000Y-83088000D01*
X129511000Y-83094000D01*
X129513000Y-83101000D01*
X129514000Y-83107000D01*
X129515000Y-83114000D01*
X129515000Y-83121000D01*
X129516000Y-83128000D01*
X129515000Y-83134000D01*
X129515000Y-83140000D01*
X129515000Y-83800000D01*
X129285000Y-83800000D01*
X129285000Y-83140000D01*
X129285000Y-83134000D01*
X129284000Y-83128000D01*
X129285000Y-83121000D01*
X129285000Y-83114000D01*
X129286000Y-83107000D01*
X129287000Y-83101000D01*
X129289000Y-83094000D01*
X129291000Y-83088000D01*
X129293000Y-83082000D01*
X129295000Y-83075000D01*
X129298000Y-83069000D01*
X129302000Y-83063000D01*
X129305000Y-83058000D01*
X129309000Y-83052000D01*
X129313000Y-83047000D01*
X129317000Y-83042000D01*
X129322000Y-83037000D01*
X129327000Y-83032000D01*
X129332000Y-83028000D01*
X129337000Y-83024000D01*
X129343000Y-83020000D01*
X129348000Y-83017000D01*
X129354000Y-83013000D01*
X129360000Y-83010000D01*
X129367000Y-83008000D01*
X129373000Y-83006000D01*
X129379000Y-83004000D01*
X129386000Y-83002000D01*
X129392000Y-83001000D01*
X129400000Y-83000000D01*
X129408000Y-83001000D01*
G37*
X136160000Y-100565000D02*
X135340000Y-100565000D01*
X135340000Y-100005000D01*
X136160000Y-100005000D01*
X136160000Y-100565000D01*
G36*
X136160000Y-100565000D02*
G01*
X135340000Y-100565000D01*
X135340000Y-100005000D01*
X136160000Y-100005000D01*
X136160000Y-100565000D01*
G37*
D11*
X129712500Y-87482500D03*
X131787500Y-87482500D03*
D12*
X117250000Y-106750000D03*
X117250000Y-108750000D03*
D13*
X111250000Y-104712500D03*
X111250000Y-106787500D03*
D12*
X136250000Y-95000000D03*
X136250000Y-97000000D03*
D13*
X130200000Y-92800000D03*
X130200000Y-94875000D03*
D14*
X126750000Y-78517500D03*
X124675000Y-78517500D03*
D15*
X129500000Y-85250000D03*
X131500000Y-85250000D03*
D16*
X122900000Y-95000000D03*
X124800000Y-95000000D03*
X123850000Y-92950000D03*
D17*
X119000000Y-99000000D03*
X119000000Y-97000000D03*
D18*
X123750000Y-108000000D03*
X121750000Y-108000000D03*
D14*
X127787500Y-87482500D03*
X125712500Y-87482500D03*
D11*
X128725000Y-107550000D03*
X130800000Y-107550000D03*
D12*
X132750000Y-74500000D03*
X132750000Y-76500000D03*
D19*
X113870000Y-100940000D03*
X113870000Y-102210000D03*
X113870000Y-103480000D03*
X113870000Y-104750000D03*
X118820000Y-104750000D03*
X118820000Y-103480000D03*
X118820000Y-102210000D03*
X118820000Y-100940000D03*
D11*
X128750000Y-76500000D03*
X130825000Y-76500000D03*
D20*
X126900000Y-103600000D03*
X128950000Y-103600000D03*
D18*
X136250000Y-83000000D03*
X134250000Y-83000000D03*
D14*
X127500000Y-85232500D03*
X125425000Y-85232500D03*
D11*
X134675000Y-103000000D03*
X136750000Y-103000000D03*
D15*
X134750000Y-76500000D03*
X136750000Y-76500000D03*
D21*
X127500000Y-74500000D03*
X127500000Y-72425000D03*
D11*
X128675000Y-78500000D03*
X130750000Y-78500000D03*
D12*
X115250000Y-106750000D03*
X115250000Y-108750000D03*
X110500000Y-99250000D03*
X110500000Y-101250000D03*
D14*
X126750000Y-76500000D03*
X124675000Y-76500000D03*
D15*
X121700000Y-103600000D03*
X123700000Y-103600000D03*
X132250000Y-97000000D03*
X134250000Y-97000000D03*
X121700000Y-99350000D03*
X123700000Y-99350000D03*
D21*
X129750000Y-74500000D03*
X129750000Y-72425000D03*
D11*
X131500000Y-80750000D03*
X133575000Y-80750000D03*
D22*
X113750000Y-94997400D03*
X113750000Y-98502600D03*
D21*
X125375000Y-74592500D03*
X125375000Y-72517500D03*
D23*
X123750000Y-113550000D03*
X123750000Y-111500000D03*
D15*
X132250000Y-94000000D03*
X134250000Y-94000000D03*
D24*
X127750000Y-109775000D03*
X128750000Y-109775000D03*
D25*
X126450000Y-113650000D03*
X130050000Y-113650000D03*
D11*
X132750000Y-78500000D03*
X134825000Y-78500000D03*
D20*
X126900000Y-99350000D03*
X128950000Y-99350000D03*
D26*
X123000000Y-83052500D03*
X123000000Y-80682500D03*
D13*
X120700000Y-87325000D03*
X120700000Y-89400000D03*
D27*
X135000000Y-101270000D03*
X135500000Y-101270000D03*
X136000000Y-101270000D03*
X136500000Y-101270000D03*
X136500000Y-99300000D03*
X136000000Y-99300000D03*
X135500000Y-99300000D03*
X135000000Y-99300000D03*
M02*
