M48
; DRILL file {KiCad 8.0.6} date 2025-06-09T20:20:43-0700
; FORMAT={-:-/ absolute / metric / decimal}
; #@! TF.CreationDate,2025-06-09T20:20:43-07:00
; #@! TF.GenerationSoftware,Kicad,Pcbnew,8.0.6
; #@! TF.FileFunction,Plated,1,2,PTH
FMAT,2
METRIC
; #@! TA.AperFunction,Plated,PTH,ViaDrill
T1C0.300
; #@! TA.AperFunction,Plated,PTH,ComponentDrill
T2C0.300
; #@! TA.AperFunction,Plated,PTH,ViaDrill
T3C0.500
; #@! TA.AperFunction,Plated,PTH,ComponentDrill
T4C0.500
; #@! TA.AperFunction,Plated,PTH,ViaDrill
T5C0.600
; #@! TA.AperFunction,Plated,PTH,ComponentDrill
T6C0.800
; #@! TA.AperFunction,Plated,PTH,ComponentDrill
T7C1.000
; #@! TA.AperFunction,Plated,PTH,ComponentDrill
T8C1.020
; #@! TA.AperFunction,Plated,PTH,ComponentDrill
T9C1.200
%
G90
G05
T1
X106.75Y-88.5
X109.5Y-104.5
X109.75Y-109.6
X111.0Y-112.0
X111.0Y-114.0
X111.5Y-108.05
X112.0Y-97.0
X112.0Y-99.25
X112.0Y-101.25
X112.25Y-94.25
X112.5Y-110.5
X112.6Y-106.2
X113.0Y-86.5
X113.75Y-113.25
X115.25Y-94.25
X115.75Y-97.25
X115.75Y-100.5
X116.0Y-87.0
X116.0Y-110.0
X116.75Y-90.5
X117.0Y-110.0
X117.6Y-61.75
X118.75Y-107.5
X119.25Y-113.25
X120.25Y-100.0
X120.5Y-104.5
X120.5Y-107.0
X120.75Y-86.0
X120.75Y-110.5
X121.25Y-102.0
X121.75Y-82.0
X122.0Y-111.0
X122.0Y-114.0
X122.25Y-84.5
X122.35Y-104.85
X122.4Y-90.35
X122.5Y-92.5
X122.75Y-82.0
X123.0Y-77.5
X123.75Y-94.25
X124.0Y-96.25
X124.5Y-86.5
X125.25Y-71.0
X125.5Y-108.5
X125.75Y-81.75
X125.75Y-82.5
X126.0Y-109.5
X126.75Y-112.125
X127.75Y-112.125
X128.75Y-112.125
X129.75Y-112.125
X130.25Y-96.25
X130.75Y-82.0
X131.25Y-73.25
X131.5Y-82.25
X131.5Y-89.0
X131.5Y-100.0
X132.25Y-82.25
X132.75Y-83.75
X133.25Y-86.25
X133.35Y-101.65
X133.75Y-92.75
X134.0Y-99.75
X134.25Y-98.4
X134.3Y-106.1
X134.75Y-81.0
X136.25Y-85.4
X137.5Y-73.5
X137.5Y-101.25
X137.75Y-57.5
X138.6Y-86.5
X138.75Y-84.0
X138.75Y-91.3
X139.25Y-89.0
X140.25Y-91.25
X140.47Y-95.293
X141.25Y-104.0
X141.45Y-95.25
X141.75Y-68.75
X141.75Y-70.0
X143.65Y-87.05
X147.0Y-81.5
X147.25Y-64.5
X147.25Y-68.75
X147.25Y-74.5
X147.25Y-85.25
X147.5Y-95.75
X152.75Y-105.25
X155.25Y-94.5
X171.0Y-105.5
X176.5Y-100.0
T2
X127.9Y-81.425
X127.9Y-81.425
X127.9Y-82.425
X128.4Y-81.925
X128.9Y-81.425
X128.9Y-82.425
T3
X113.0Y-107.25
X121.25Y-109.5
T5
X120.5Y-105.75
X125.25Y-107.25
T6
X115.2Y-62.5
X115.2Y-64.5
X115.2Y-66.5
X115.2Y-68.5
X115.2Y-70.5
X115.2Y-72.5
X115.2Y-74.5
X115.2Y-76.5
T7
X97.25Y-88.92
X97.25Y-91.46
X97.25Y-94.0
X97.25Y-96.54
X97.25Y-99.08
X97.25Y-101.62
X140.57Y-73.99
X140.57Y-76.53
X140.57Y-79.07
X140.57Y-81.61
X140.57Y-84.15
X140.57Y-86.69
T8
X144.6Y-62.92
X144.6Y-65.46
X144.6Y-68.0
X144.6Y-70.54
X144.6Y-73.08
X144.6Y-75.62
X144.6Y-78.16
X144.6Y-80.7
X144.6Y-83.24
X144.6Y-85.78
X144.6Y-88.32
X144.6Y-90.86
X144.6Y-93.4
X144.6Y-95.94
X144.6Y-98.48
X170.0Y-62.92
X170.0Y-65.46
X170.0Y-68.0
X170.0Y-70.54
X170.0Y-73.08
X170.0Y-75.62
X170.0Y-78.16
X170.0Y-80.7
X170.0Y-83.24
X170.0Y-85.78
X170.0Y-88.32
X170.0Y-90.86
X170.0Y-93.4
X170.0Y-95.94
X170.0Y-98.48
T9
X136.705Y-110.025
X140.205Y-110.025
X146.354Y-110.025
X149.854Y-110.025
X156.003Y-110.025
X159.503Y-110.025
X165.653Y-110.025
X169.153Y-110.025
T4
X112.21Y-112.645G85X112.21Y-111.945
G05
X120.75Y-112.645G85X120.75Y-111.945
G05
M30
